<svg width="12" height="17" viewBox="0 0 12 17" fill="none" xmlns="http://www.w3.org/2000/svg">
<path d="M1.36642 14.571L9.25279 15.9652C9.72445 16.0484 10.1302 16.0207 10.4701 15.8819C10.81 15.7433 11.0712 15.504 11.2539 15.1641C11.4366 14.8242 11.5279 14.3976 11.5279 13.8843V5.30435C11.5279 4.59686 11.3476 4.08821 10.9869 3.77839C10.6262 3.46858 10.0944 3.25356 9.39157 3.13334L1.74097 1.78078C1.38954 1.72067 1.08319 1.73917 0.821936 1.83628C0.560673 1.93338 0.358368 2.09985 0.21502 2.33568C0.0716734 2.57151 0 2.86282 0 3.20963V12.9965C0 13.4404 0.114446 13.7942 0.343339 14.0578C0.572232 14.3213 0.91326 14.4924 1.36642 14.571ZM1.63693 13.4682C1.46121 13.4404 1.33058 13.3746 1.24504 13.2705C1.15949 13.1665 1.11672 13.022 1.11672 12.837V3.39691C1.11672 3.21194 1.17568 3.07438 1.29359 2.98421C1.4115 2.89404 1.57219 2.86745 1.77565 2.90445L9.33603 4.22925C9.68747 4.29398 9.95453 4.40612 10.1372 4.56565C10.3198 4.72518 10.4112 4.96679 10.4112 5.29048V13.7664C10.4112 14.1595 10.3036 14.4485 10.0886 14.6334C9.8736 14.8184 9.57882 14.8763 9.20428 14.8069L1.63693 13.4682ZM9.79387 3.98648H10.9105V2.36343C10.9105 1.63282 10.6793 1.10336 10.217 0.775047C9.75454 0.446735 9.11178 0.354253 8.28868 0.4976L1.04042 1.78078L1.45659 2.74491L8.68408 1.54496C9.03088 1.48484 9.30253 1.52415 9.49904 1.66287C9.69559 1.8016 9.79387 2.02124 9.79387 2.3218V3.98648ZM2.85076 5.95635L8.19855 6.89967C8.36039 6.92741 8.48871 6.89735 8.58351 6.80949C8.67831 6.72164 8.7257 6.60604 8.7257 6.46269C8.7257 6.20836 8.60084 6.05808 8.35111 6.01184L3.0311 5.08239C2.87388 5.05465 2.7444 5.08124 2.64267 5.16216C2.54094 5.24308 2.49008 5.35521 2.49008 5.49856C2.49008 5.61879 2.52129 5.72052 2.58372 5.80375C2.64614 5.88699 2.73515 5.93785 2.85076 5.95635ZM2.85076 8.66143L8.19855 9.60473C8.36039 9.63247 8.48871 9.60243 8.58351 9.51459C8.67831 9.42671 8.7257 9.3111 8.7257 9.16777C8.7257 8.91345 8.60084 8.76316 8.35111 8.7169L3.0311 7.78752C2.87388 7.75977 2.7444 7.7875 2.64267 7.87069C2.54094 7.95394 2.49008 8.06493 2.49008 8.20366C2.49008 8.32853 2.52129 8.43142 2.58372 8.51234C2.64614 8.59327 2.73515 8.64296 2.85076 8.66143Z" fill="#0C3751"/>
</svg>
