<svg width="19" height="12" viewBox="0 0 19 12" fill="none" xmlns="http://www.w3.org/2000/svg">
<path d="M9.48171 11.8955C10.4158 11.8955 11.2978 11.7834 12.1279 11.5591C12.9579 11.3348 13.7243 11.0389 14.4272 10.6713C15.1301 10.3036 15.7601 9.89787 16.3173 9.45396C16.8745 9.01004 17.3496 8.56499 17.7427 8.11881C18.1357 7.67257 18.4363 7.25871 18.6444 6.87721C18.8525 6.49572 18.9565 6.18706 18.9565 5.95124C18.9565 5.71541 18.8525 5.40675 18.6444 5.02526C18.4363 4.64377 18.1357 4.22992 17.7427 3.78369C17.3496 3.33747 16.8745 2.8924 16.3173 2.44848C15.7601 2.00457 15.1289 1.59881 14.4237 1.23119C13.7186 0.863572 12.951 0.56763 12.1209 0.343361C11.2909 0.119092 10.4112 0.00695801 9.48171 0.00695801C8.56149 0.00695801 7.6887 0.119092 6.86332 0.343361C6.03792 0.56763 5.27263 0.863572 4.56745 1.23119C3.86228 1.59881 3.22878 2.00457 2.66695 2.44848C2.10512 2.8924 1.62537 3.33747 1.2277 3.78369C0.830027 4.22992 0.525991 4.64377 0.315595 5.02526C0.105198 5.40675 0 5.71541 0 5.95124C0 6.18706 0.105198 6.49572 0.315595 6.87721C0.525991 7.25871 0.830027 7.67257 1.2277 8.11881C1.62537 8.56499 2.10396 9.01004 2.66348 9.45396C3.223 9.89787 3.85534 10.3036 4.56052 10.6713C5.26569 11.0389 6.03098 11.3348 6.85638 11.5591C7.68179 11.7834 8.5569 11.8955 9.48171 11.8955ZM9.48171 10.7996C8.71874 10.7996 7.98582 10.7048 7.28295 10.5152C6.58009 10.3256 5.92116 10.0748 5.30615 9.76264C4.69115 9.4505 4.13395 9.10948 3.63454 8.73958C3.13514 8.36962 2.70394 8.00315 2.34095 7.64016C1.97796 7.27718 1.69936 6.94541 1.50514 6.64485C1.31093 6.34428 1.21382 6.11308 1.21382 5.95124C1.21382 5.81251 1.31093 5.59981 1.50514 5.31311C1.69936 5.02642 1.97796 4.69926 2.34095 4.33164C2.70394 3.96403 3.13514 3.59295 3.63454 3.21839C4.13395 2.84384 4.69115 2.49588 5.30615 2.1745C5.92116 1.85313 6.58009 1.59418 7.28295 1.39765C7.98582 1.20113 8.71874 1.10287 9.48171 1.10287C10.2401 1.10287 10.9695 1.20113 11.6701 1.39765C12.3706 1.59418 13.0284 1.85313 13.6434 2.1745C14.2584 2.49588 14.8168 2.84384 15.3185 3.21839C15.8202 3.59295 16.2514 3.96403 16.6121 4.33164C16.9728 4.69926 17.2513 5.02642 17.4479 5.31311C17.6444 5.59981 17.7427 5.81251 17.7427 5.95124C17.7427 6.11308 17.6444 6.34428 17.4479 6.64485C17.2513 6.94541 16.9728 7.27718 16.6121 7.64016C16.2514 8.00315 15.8202 8.36962 15.3185 8.73958C14.8168 9.10948 14.2584 9.4505 13.6434 9.76264C13.0284 10.0748 12.3706 10.3256 11.6701 10.5152C10.9695 10.7048 10.2401 10.7996 9.48171 10.7996ZM9.48171 9.83551C10.0181 9.83551 10.5221 9.73378 10.9938 9.53031C11.4654 9.32684 11.8793 9.04591 12.2354 8.68751C12.5914 8.32916 12.87 7.91532 13.0712 7.44598C13.2723 6.97663 13.3729 6.47838 13.3729 5.95124C13.3729 5.41022 13.2723 4.90388 13.0712 4.43222C12.87 3.96056 12.5914 3.54786 12.2354 3.19412C11.8793 2.84037 11.4654 2.56408 10.9938 2.36525C10.5221 2.16641 10.0181 2.067 9.48171 2.067C8.93608 2.067 8.42744 2.16641 7.95578 2.36525C7.48412 2.56408 7.07025 2.84037 6.71419 3.19412C6.35813 3.54786 6.07953 3.96056 5.87839 4.43222C5.67724 4.90388 5.57666 5.41022 5.57666 5.95124C5.58129 6.47838 5.68417 6.97663 5.88532 7.44598C6.08647 7.91532 6.36507 8.32916 6.72113 8.68751C7.07716 9.04591 7.48987 9.32684 7.95926 9.53031C8.4286 9.73378 8.93608 9.83551 9.48171 9.83551ZM9.48171 7.24135C9.12103 7.24135 8.81354 7.11419 8.55922 6.85987C8.3049 6.60554 8.17774 6.30267 8.17774 5.95124C8.17774 5.59518 8.3049 5.29114 8.55922 5.03913C8.81354 4.78712 9.12103 4.66111 9.48171 4.66111C9.83778 4.66111 10.143 4.78712 10.3973 5.03913C10.6516 5.29114 10.7788 5.59518 10.7788 5.95124C10.7788 6.30267 10.6516 6.60554 10.3973 6.85987C10.143 7.11419 9.83778 7.24135 9.48171 7.24135Z" fill="#0C3751"/>
</svg>
