<svg width="13" height="8" viewBox="0 0 13 8" fill="none" xmlns="http://www.w3.org/2000/svg">
<g clip-path="url(#clip0_668_1172)">
<path d="M6.50374 8.00004C6.59854 8.00004 6.6896 7.98125 6.77691 7.94366C6.86422 7.90612 6.94031 7.85231 7.00517 7.78221L12.7979 1.8254C12.9326 1.69019 13 1.52994 13 1.34465C13 1.21444 12.9701 1.09676 12.9102 0.991591C12.8503 0.886425 12.7692 0.803797 12.6669 0.743706C12.5646 0.683611 12.4486 0.653564 12.3189 0.653564C12.1343 0.653564 11.9722 0.718667 11.8325 0.848873L6.09959 6.73055H6.9004L1.16753 0.848873C1.03282 0.718667 0.87066 0.653564 0.681059 0.653564C0.551334 0.653564 0.435329 0.683611 0.333045 0.743706C0.230762 0.803797 0.149683 0.886425 0.0898103 0.991591C0.0299368 1.09676 0 1.21444 0 1.34465C0 1.43979 0.0174631 1.52868 0.0523892 1.61131C0.0873154 1.69394 0.13721 1.7678 0.202073 1.8329L5.99482 7.78221C6.1445 7.92743 6.31414 8.00004 6.50374 8.00004Z" fill="#0C3751"/>
</g>
<defs>
<clipPath id="clip0_668_1172">
<rect width="13" height="8" fill="white"/>
</clipPath>
</defs>
</svg>
