<svg width="22" height="19" viewBox="0 0 22 19" fill="none" xmlns="http://www.w3.org/2000/svg">
<g clip-path="url(#clip0_668_1164)">
<path d="M0 16.5137C0 16.9173 0.110677 17.2037 0.332031 17.373C0.553385 17.5423 0.810548 17.627 1.10352 17.627C1.26628 17.627 1.42578 17.5863 1.58203 17.5049C1.73828 17.4235 1.90755 17.3242 2.08984 17.207C2.63021 16.8425 3.22103 16.5544 3.8623 16.3428C4.50358 16.1312 5.16602 16.0287 5.84961 16.0352C6.55274 16.0417 7.24121 16.1751 7.91504 16.4355C8.58887 16.696 9.19922 17.0899 9.74609 17.6172C9.96096 17.8125 10.153 17.9476 10.3223 18.0225C10.4916 18.0974 10.6673 18.1348 10.8496 18.1348C11.0254 18.1348 11.1996 18.0974 11.3721 18.0225C11.5446 17.9476 11.7351 17.8125 11.9434 17.6172C12.4903 17.0899 13.1006 16.696 13.7744 16.4355C14.4483 16.1751 15.14 16.0417 15.8496 16.0352C16.5267 16.0287 17.1858 16.1312 17.8271 16.3428C18.4684 16.5544 19.0593 16.8425 19.5996 17.207C19.7819 17.3242 19.9511 17.4235 20.1074 17.5049C20.2637 17.5863 20.4264 17.627 20.5957 17.627C20.8822 17.627 21.1361 17.5423 21.3574 17.373C21.5788 17.2037 21.6895 16.9173 21.6895 16.5137V3.26172C21.6895 3.17709 21.683 3.09896 21.6699 3.02734C21.6569 2.95573 21.6244 2.8776 21.5723 2.79297C21.2858 2.29167 20.8594 1.82943 20.293 1.40625C19.7266 0.983073 19.0609 0.642903 18.2959 0.385742C17.5309 0.128581 16.7024 0 15.8105 0C14.7428 0 13.7712 0.19043 12.8955 0.571289C12.0198 0.95215 11.3379 1.44531 10.8496 2.05078C10.3548 1.44531 9.66958 0.95215 8.79395 0.571289C7.9183 0.19043 6.94987 0 5.88867 0C4.99024 0 4.15853 0.128581 3.39355 0.385742C2.62858 0.642903 1.96452 0.983073 1.40137 1.40625C0.838217 1.82943 0.410157 2.29167 0.117188 2.79297C0.0651043 2.8776 0.0325521 2.95573 0.0195312 3.02734C0.0065104 3.09896 0 3.17709 0 3.26172V16.5137ZM1.57227 15.6836V3.48633C1.83268 3.10222 2.1875 2.76693 2.63672 2.48047C3.08594 2.19401 3.58887 1.97103 4.14551 1.81152C4.70215 1.65202 5.2832 1.57227 5.88867 1.57227C6.81315 1.57227 7.65299 1.75131 8.4082 2.10938C9.16341 2.46745 9.71355 2.94596 10.0586 3.54492V15.8496C9.72657 15.5827 9.34082 15.345 8.90137 15.1367C8.46192 14.9284 7.98503 14.764 7.4707 14.6436C6.95638 14.5231 6.42904 14.4629 5.88867 14.4629C5.03581 14.4629 4.23177 14.5736 3.47656 14.7949C2.72135 15.0163 2.08659 15.3125 1.57227 15.6836ZM11.6309 15.8496V3.54492C11.9759 2.94596 12.526 2.46745 13.2812 2.10938C14.0365 1.75131 14.8796 1.57227 15.8105 1.57227C16.4095 1.57227 16.9873 1.65202 17.5439 1.81152C18.1006 1.97103 18.6035 2.19401 19.0527 2.48047C19.502 2.76693 19.8568 3.10222 20.1172 3.48633V15.6836C19.6029 15.3125 18.9681 15.0163 18.2129 14.7949C17.4577 14.5736 16.6569 14.4629 15.8105 14.4629C15.2636 14.4629 14.7347 14.5231 14.2236 14.6436C13.7125 14.764 13.2357 14.9284 12.793 15.1367C12.3503 15.345 11.9629 15.5827 11.6309 15.8496Z" fill="#0C3751"/>
</g>
<defs>
<clipPath id="clip0_668_1164">
<rect width="21.6895" height="18.1543" fill="white"/>
</clipPath>
</defs>
</svg>
