<svg width="19" height="24" viewBox="0 0 19 24" fill="none" xmlns="http://www.w3.org/2000/svg">
<g clip-path="url(#clip0_668_1168)">
<path d="M3.02734 22.0117H8.37891C8.125 21.7904 7.89063 21.5479 7.67578 21.2842C7.46094 21.0205 7.27214 20.739 7.10938 20.4395H3.11523C2.60742 20.4395 2.22331 20.3125 1.96289 20.0586C1.70248 19.8047 1.57227 19.4336 1.57227 18.9453V4.16016C1.57227 3.67839 1.70248 3.30566 1.96289 3.04199C2.22331 2.77832 2.60742 2.64648 3.11523 2.64648H13.3203C13.8086 2.64648 14.1862 2.77832 14.4531 3.04199C14.72 3.30566 14.8535 3.67839 14.8535 4.16016V12.6855C15.153 12.8418 15.4345 13.029 15.6982 13.2471C15.9619 13.4652 16.2045 13.7012 16.4258 13.9551V4.14062C16.4258 3.11849 16.1735 2.35189 15.6689 1.84082C15.1644 1.32975 14.4075 1.07422 13.3984 1.07422H3.02734C2.02474 1.07422 1.26953 1.33138 0.761719 1.8457C0.253906 2.36003 0 3.125 0 4.14062V18.9453C0 19.9674 0.252279 20.734 0.756836 21.2451C1.26139 21.7562 2.01823 22.0117 3.02734 22.0117ZM4.52148 6.63086H11.9238C12.0931 6.63086 12.2363 6.57064 12.3535 6.4502C12.4707 6.32975 12.5293 6.18489 12.5293 6.01562C12.5293 5.85286 12.4707 5.71452 12.3535 5.60059C12.2363 5.48666 12.0931 5.42969 11.9238 5.42969H4.52148C4.33919 5.42969 4.19108 5.48666 4.07715 5.60059C3.96322 5.71452 3.90625 5.85286 3.90625 6.01562C3.90625 6.18489 3.96322 6.32975 4.07715 6.4502C4.19108 6.57064 4.33919 6.63086 4.52148 6.63086ZM4.52148 10.0293H11.9238C12.0931 10.0293 12.2363 9.97071 12.3535 9.85352C12.4707 9.73633 12.5293 9.5931 12.5293 9.42383C12.5293 9.25456 12.4707 9.11295 12.3535 8.99902C12.2363 8.88509 12.0931 8.82812 11.9238 8.82812H4.52148C4.33919 8.82812 4.19108 8.88509 4.07715 8.99902C3.96322 9.11295 3.90625 9.25456 3.90625 9.42383C3.90625 9.5931 3.96322 9.73633 4.07715 9.85352C4.19108 9.97071 4.33919 10.0293 4.52148 10.0293ZM12.041 22.0117C12.8483 22.0117 13.584 21.8148 14.248 21.4209C14.9121 21.027 15.4411 20.4981 15.835 19.834C16.2289 19.1699 16.4258 18.4343 16.4258 17.627C16.4258 16.8131 16.2289 16.0742 15.835 15.4102C15.4411 14.7461 14.9121 14.2155 14.248 13.8184C13.584 13.4213 12.8483 13.2227 12.041 13.2227C11.2337 13.2227 10.4981 13.4213 9.83398 13.8184C9.16992 14.2155 8.63769 14.7477 8.2373 15.415C7.83691 16.0823 7.63672 16.8197 7.63672 17.627C7.63672 18.4343 7.83691 19.1699 8.2373 19.834C8.63769 20.4981 9.16992 21.027 9.83398 21.4209C10.4981 21.8148 11.2337 22.0117 12.041 22.0117ZM12.041 20.6152C11.4876 20.6152 10.9847 20.4801 10.5322 20.21C10.0797 19.9398 9.7168 19.5785 9.44336 19.126C9.16992 18.6735 9.0332 18.1739 9.0332 17.627C9.0332 17.0801 9.16992 16.5804 9.44336 16.1279C9.7168 15.6754 10.0797 15.3125 10.5322 15.0391C10.9847 14.7656 11.4876 14.6289 12.041 14.6289C12.5814 14.6289 13.0778 14.7656 13.5303 15.0391C13.9828 15.3125 14.3441 15.6754 14.6143 16.1279C14.8844 16.5804 15.0195 17.0801 15.0195 17.627C15.0195 18.1739 14.8844 18.6735 14.6143 19.126C14.3441 19.5785 13.9844 19.9398 13.5352 20.21C13.0859 20.4801 12.5879 20.6152 12.041 20.6152ZM17.3438 23.8184C17.5716 23.8184 17.7604 23.7386 17.9102 23.5791C18.0599 23.4196 18.1348 23.2161 18.1348 22.9688C18.1348 22.8646 18.1104 22.7588 18.0615 22.6514C18.0127 22.5439 17.946 22.4511 17.8613 22.373L15.127 19.6289L13.8867 20.7422L16.6309 23.4961C16.8457 23.711 17.0833 23.8184 17.3438 23.8184Z" fill="#0C3751"/>
</g>
<defs>
<clipPath id="clip0_668_1168">
<rect width="18.1348" height="23.8184" fill="white"/>
</clipPath>
</defs>
</svg>
