<svg width="31" height="13" viewBox="0 0 31 13" fill="none" xmlns="http://www.w3.org/2000/svg">
<g clip-path="url(#clip0_668_1152)">
<path d="M7.97852 12.1875C8.81836 12.1875 9.60612 12.0296 10.3418 11.7139C11.0775 11.3981 11.7236 10.9619 12.2803 10.4053C12.8369 9.84864 13.2731 9.20084 13.5889 8.46191C13.9046 7.72298 14.0625 6.9336 14.0625 6.09375C14.0625 5.2539 13.9046 4.46614 13.5889 3.73047C13.2731 2.99479 12.8369 2.347 12.2803 1.78711C11.7236 1.22721 11.0775 0.789388 10.3418 0.473633C9.60612 0.157878 8.81836 0 7.97852 0C7.13216 0 6.34114 0.157878 5.60547 0.473633C4.86979 0.789388 4.222 1.22721 3.66211 1.78711C3.10222 2.347 2.66439 2.99479 2.34863 3.73047C2.03288 4.46614 1.875 5.2539 1.875 6.09375C1.875 6.9336 2.03288 7.72298 2.34863 8.46191C2.66439 9.20084 3.10222 9.84864 3.66211 10.4053C4.222 10.9619 4.86979 11.3981 5.60547 11.7139C6.34114 12.0296 7.13216 12.1875 7.97852 12.1875ZM7.97852 10.5371C7.36003 10.5371 6.78223 10.4232 6.24512 10.1953C5.70801 9.96745 5.236 9.65007 4.8291 9.24316C4.4222 8.83626 4.10319 8.36263 3.87207 7.82227C3.64095 7.2819 3.52539 6.70573 3.52539 6.09375C3.52539 5.48177 3.64095 4.90723 3.87207 4.37012C4.10319 3.83301 4.4222 3.361 4.8291 2.9541C5.236 2.5472 5.70801 2.22819 6.24512 1.99707C6.78223 1.76595 7.36003 1.65039 7.97852 1.65039C8.58399 1.65039 9.15527 1.76595 9.69238 1.99707C10.2295 2.22819 10.7015 2.5472 11.1084 2.9541C11.5153 3.361 11.8343 3.83301 12.0654 4.37012C12.2965 4.90723 12.4121 5.48177 12.4121 6.09375C12.4121 6.70573 12.2965 7.28027 12.0654 7.81738C11.8343 8.35449 11.5153 8.8265 11.1084 9.2334C10.7015 9.6403 10.2295 9.9593 9.69238 10.1904C9.15527 10.4215 8.58399 10.5371 7.97852 10.5371ZM22.8516 12.1875C23.6914 12.1875 24.4791 12.0296 25.2148 11.7139C25.9505 11.3981 26.5967 10.9619 27.1533 10.4053C27.71 9.84864 28.1462 9.20084 28.4619 8.46191C28.7776 7.72298 28.9355 6.9336 28.9355 6.09375C28.9355 5.2539 28.7776 4.46614 28.4619 3.73047C28.1462 2.99479 27.71 2.347 27.1533 1.78711C26.5967 1.22721 25.9505 0.789388 25.2148 0.473633C24.4791 0.157878 23.6914 0 22.8516 0C22.0052 0 21.2142 0.157878 20.4785 0.473633C19.7428 0.789388 19.0951 1.22721 18.5352 1.78711C17.9753 2.347 17.5374 2.99479 17.2217 3.73047C16.9059 4.46614 16.748 5.2539 16.748 6.09375C16.748 6.9336 16.9059 7.72298 17.2217 8.46191C17.5374 9.20084 17.9753 9.84864 18.5352 10.4053C19.0951 10.9619 19.7428 11.3981 20.4785 11.7139C21.2142 12.0296 22.0052 12.1875 22.8516 12.1875ZM22.8516 10.5371C22.2331 10.5371 21.6553 10.4215 21.1182 10.1904C20.5811 9.9593 20.109 9.6403 19.7021 9.2334C19.2952 8.8265 18.9762 8.35449 18.7451 7.81738C18.514 7.28027 18.3984 6.70573 18.3984 6.09375C18.3984 5.48177 18.514 4.90723 18.7451 4.37012C18.9762 3.83301 19.2952 3.361 19.7021 2.9541C20.109 2.5472 20.5811 2.22819 21.1182 1.99707C21.6553 1.76595 22.2331 1.65039 22.8516 1.65039C23.4635 1.65039 24.0381 1.76595 24.5752 1.99707C25.1123 2.22819 25.5843 2.5472 25.9912 2.9541C26.3981 3.361 26.7155 3.83301 26.9434 4.37012C27.1713 4.90723 27.2852 5.48177 27.2852 6.09375C27.2852 6.70573 27.1713 7.2819 26.9434 7.82227C26.7155 8.36263 26.3981 8.83626 25.9912 9.24316C25.5843 9.65007 25.1123 9.96745 24.5752 10.1953C24.0381 10.4232 23.4635 10.5371 22.8516 10.5371ZM2.51953 4.89258H0.732422C0.244141 4.89258 0 5.13672 0 5.625V6.02539C0 6.52018 0.244141 6.76758 0.732422 6.76758H2.51953V4.89258ZM28.291 6.76758H30.0879C30.5696 6.76758 30.8105 6.52018 30.8105 6.02539V5.625C30.8105 5.13672 30.5696 4.89258 30.0879 4.89258H28.291V6.76758ZM13.584 6.44531C13.8314 6.29557 14.1162 6.18164 14.4385 6.10352C14.7608 6.02539 15.0847 5.98633 15.4102 5.98633C15.7292 5.98633 16.0515 6.02539 16.377 6.10352C16.7025 6.18164 16.9889 6.29557 17.2363 6.44531V4.67773C16.9564 4.54752 16.6504 4.45475 16.3184 4.39941C15.9863 4.34408 15.6836 4.31641 15.4102 4.31641C15.1302 4.31641 14.8242 4.34408 14.4922 4.39941C14.1601 4.45475 13.8574 4.54752 13.584 4.67773V6.44531Z" fill="#0C3751"/>
</g>
<defs>
<clipPath id="clip0_668_1152">
<rect width="30.8105" height="12.1973" fill="white"/>
</clipPath>
</defs>
</svg>
