<svg width="21" height="16" viewBox="0 0 21 16" fill="none" xmlns="http://www.w3.org/2000/svg">
<g clip-path="url(#clip0_668_1180)">
<path d="M0.869141 14.8047C1.12956 14.8047 1.34115 14.7266 1.50391 14.5703C1.66667 14.414 1.74805 14.2122 1.74805 13.9648V0.869141C1.74805 0.615234 1.66667 0.406901 1.50391 0.244141C1.34115 0.0813803 1.12956 0 0.869141 0C0.615234 0 0.406901 0.0813803 0.244141 0.244141C0.0813803 0.406901 0 0.615234 0 0.869141V13.9648C0 14.2122 0.0813803 14.414 0.244141 14.5703C0.406901 14.7266 0.615234 14.8047 0.869141 14.8047ZM9.16016 14.8047C9.40104 14.8047 9.60449 14.7266 9.77051 14.5703C9.9365 14.414 10.0195 14.2122 10.0195 13.9648C10.0195 13.8541 9.99835 13.7435 9.95605 13.6328C9.91374 13.5221 9.85677 13.4277 9.78516 13.3496L7.59766 11.123L3.75977 7.63672L3.56445 8.17383L6.47461 8.28125H19.3457C19.5931 8.28125 19.7982 8.19824 19.9609 8.03223C20.1237 7.86621 20.2051 7.65625 20.2051 7.40234C20.2051 7.14843 20.1237 6.9401 19.9609 6.77734C19.7982 6.61458 19.5931 6.5332 19.3457 6.5332H6.47461L3.56445 6.64062L3.75977 7.1875L7.59766 3.68164L9.78516 1.46484C9.85677 1.38672 9.91374 1.29232 9.95605 1.18164C9.99835 1.07096 10.0195 0.957028 10.0195 0.839844C10.0195 0.598959 9.9365 0.398763 9.77051 0.239258C9.60449 0.0797527 9.40104 0 9.16016 0C8.93229 0 8.72396 0.091146 8.53516 0.273438L2.04102 6.74805C1.94336 6.8457 1.86849 6.94987 1.81641 7.06055C1.76432 7.17122 1.73828 7.28515 1.73828 7.40234C1.73828 7.52604 1.76432 7.64323 1.81641 7.75391C1.86849 7.86458 1.94336 7.96549 2.04102 8.05664L8.53516 14.541C8.72396 14.7168 8.93229 14.8047 9.16016 14.8047Z" fill="#0C3751"/>
</g>
<defs>
<clipPath id="clip0_668_1180">
<rect width="20.2051" height="15.1855" fill="white"/>
</clipPath>
</defs>
</svg>
