<svg width="17" height="23" viewBox="0 0 17 23" fill="none" xmlns="http://www.w3.org/2000/svg">
<g clip-path="url(#clip0_668_1176)">
<path d="M1.92383 20.5151L13.0273 22.478C13.6914 22.5952 14.2627 22.5561 14.7412 22.3608C15.2197 22.1655 15.5876 21.8286 15.8447 21.3501C16.1019 20.8715 16.2305 20.2709 16.2305 19.5483V7.46823C16.2305 6.47213 15.9766 5.75599 15.4688 5.31979C14.9609 4.88359 14.2122 4.58086 13.2227 4.41159L2.45117 2.50729C1.95638 2.42265 1.52506 2.4487 1.15723 2.58542C0.789389 2.72214 0.504557 2.95651 0.302734 3.28854C0.100911 3.62057 0 4.03073 0 4.51901V18.2983C0 18.9233 0.161133 19.4213 0.483398 19.7925C0.805664 20.1635 1.28581 20.4044 1.92383 20.5151ZM2.30469 18.9624C2.05729 18.9233 1.87337 18.8305 1.75293 18.6841C1.63249 18.5376 1.57227 18.3341 1.57227 18.0737V4.78268C1.57227 4.52226 1.65528 4.32858 1.82129 4.20163C1.9873 4.07467 2.21354 4.03724 2.5 4.08933L13.1445 5.95456C13.6393 6.0457 14.0153 6.20358 14.2725 6.42819C14.5296 6.6528 14.6582 6.99297 14.6582 7.4487V19.3823C14.6582 19.9357 14.5068 20.3426 14.2041 20.603C13.9014 20.8634 13.4863 20.9448 12.959 20.8472L2.30469 18.9624ZM13.7891 5.61276H15.3613V3.32761C15.3613 2.29896 15.0358 1.55352 14.3848 1.09128C13.7337 0.629036 12.8288 0.498827 11.6699 0.70065L1.46484 2.50729L2.05078 3.86472L12.2266 2.17526C12.7149 2.09062 13.0973 2.14596 13.374 2.34128C13.6507 2.53659 13.7891 2.84583 13.7891 3.26901V5.61276ZM4.01367 8.3862L11.543 9.71433C11.7709 9.75339 11.9515 9.71107 12.085 9.58737C12.2185 9.46367 12.2852 9.30091 12.2852 9.09909C12.2852 8.74101 12.1094 8.52943 11.7578 8.46433L4.26758 7.15573C4.04623 7.11667 3.86393 7.1541 3.7207 7.26804C3.57747 7.38196 3.50586 7.53984 3.50586 7.74167C3.50586 7.91094 3.54981 8.05417 3.6377 8.17136C3.72559 8.28854 3.85091 8.36016 4.01367 8.3862ZM4.01367 12.1948L11.543 13.5229C11.7709 13.5619 11.9515 13.5196 12.085 13.396C12.2185 13.2722 12.2852 13.1095 12.2852 12.9077C12.2852 12.5496 12.1094 12.338 11.7578 12.2729L4.26758 10.9644C4.04623 10.9253 3.86393 10.9643 3.7207 11.0815C3.57747 11.1987 3.50586 11.3549 3.50586 11.5503C3.50586 11.7261 3.54981 11.8709 3.6377 11.9849C3.72559 12.0988 3.85091 12.1688 4.01367 12.1948Z" fill="#0C3751"/>
</g>
<defs>
<clipPath id="clip0_668_1176">
<rect width="16.2305" height="22.5439" fill="white"/>
</clipPath>
</defs>
</svg>
