<svg width="15" height="14" viewBox="0 0 15 14" fill="none" xmlns="http://www.w3.org/2000/svg">
<path d="M6.06219 6.75256C6.61246 6.75256 7.11418 6.60459 7.56734 6.30865C8.02048 6.0127 8.38232 5.6185 8.65283 5.12603C8.92335 4.63357 9.0586 4.08908 9.0586 3.49257C9.0586 2.90069 8.92451 2.36545 8.65631 1.88686C8.38812 1.40826 8.02744 1.02793 7.5743 0.745857C7.12112 0.463788 6.61708 0.322754 6.06219 0.322754C5.51655 0.322754 5.01599 0.466101 4.56052 0.752797C4.10504 1.03949 3.74205 1.42329 3.47154 1.90419C3.20103 2.3851 3.06578 2.91919 3.06578 3.50644C3.0704 4.09833 3.20797 4.6405 3.47848 5.13297C3.74899 5.62544 4.11082 6.01849 4.56398 6.31212C5.01714 6.60575 5.51655 6.75256 6.06219 6.75256ZM6.06219 5.7052C5.72464 5.7052 5.41366 5.60694 5.12928 5.41041C4.8449 5.21389 4.616 4.94917 4.4426 4.61623C4.2692 4.2833 4.1825 3.91337 4.1825 3.50644C4.1825 3.10415 4.26804 2.74231 4.43913 2.42094C4.61023 2.09956 4.83796 1.84408 5.12234 1.65449C5.40672 1.46491 5.72001 1.37011 6.06219 1.37011C6.409 1.37011 6.72459 1.46259 7.00897 1.64756C7.29338 1.83252 7.51996 2.08569 7.68872 2.40707C7.85748 2.72844 7.94186 3.09028 7.94186 3.49257C7.94186 3.89949 7.85632 4.27057 7.68524 4.60582C7.51416 4.94107 7.28643 5.20811 7.00204 5.40695C6.71766 5.60578 6.40438 5.7052 6.06219 5.7052ZM1.70629 13.1685L10.758 13.1546C10.6146 12.9558 10.5407 12.7362 10.536 12.4957C10.5314 12.4356 10.5279 12.3743 10.5256 12.3119C10.5233 12.2494 10.5222 12.1859 10.5222 12.1211H1.37335C1.28087 12.1211 1.21498 12.1073 1.17567 12.0795C1.13637 12.0518 1.11672 12.0009 1.11672 11.9269C1.11672 11.6449 1.22539 11.3177 1.44272 10.9454C1.66005 10.5732 1.97795 10.2137 2.39644 9.8669C2.81492 9.5201 3.33166 9.23226 3.94667 9.00336C4.56167 8.77447 5.26685 8.66002 6.06219 8.66002C6.75118 8.66002 7.3708 8.7525 7.92105 8.93745C8.47136 9.1224 8.94534 9.35823 9.34299 9.64494C9.74064 9.93165 10.0597 10.2276 10.3002 10.5328V9.63109C10.0782 9.46925 9.88516 9.28195 9.72099 9.06921C9.55683 8.85651 9.42851 8.62532 9.33603 8.37564C8.88752 8.13978 8.38814 7.95364 7.83788 7.81723C7.28759 7.68086 6.6957 7.61267 6.06219 7.61267C5.11888 7.61267 4.27382 7.756 3.52703 8.04266C2.78024 8.32937 2.14442 8.70046 1.61959 9.15593C1.09476 9.61139 0.693617 10.0958 0.416169 10.6091C0.138723 11.1223 0 11.6055 0 12.0587C0 12.7986 0.568763 13.1685 1.70629 13.1685ZM12.2423 5.07401C11.8492 5.07401 11.492 5.16881 11.1706 5.35839C10.8493 5.54798 10.5949 5.80231 10.4077 6.12137C10.2204 6.44044 10.1268 6.79418 10.1268 7.18261C10.1268 7.63116 10.2481 8.03345 10.4909 8.38948C10.7337 8.74556 11.0585 9.00452 11.4655 9.16637V12.4402C11.4655 12.505 11.4978 12.5743 11.5626 12.6483L12.1174 13.2101C12.1498 13.2425 12.188 13.2598 12.2319 13.2622C12.2759 13.2644 12.3163 13.2471 12.3533 13.2101L13.4076 12.1558C13.4399 12.1234 13.4561 12.0853 13.4561 12.0414C13.4561 11.9974 13.4399 11.9593 13.4076 11.9269L12.7556 11.268L13.6573 10.3871C13.6896 10.3548 13.7047 10.3166 13.7024 10.2727C13.7 10.2287 13.6804 10.1859 13.6434 10.1443L12.7556 9.2565C13.2642 9.05303 13.6573 8.77097 13.9347 8.4103C14.2122 8.04962 14.3509 7.6404 14.3509 7.18261C14.3509 6.79418 14.2561 6.44044 14.0665 6.12137C13.8769 5.80231 13.6226 5.54798 13.3036 5.35839C12.9845 5.16881 12.6307 5.07401 12.2423 5.07401ZM12.2354 6.08669C12.4157 6.08669 12.5683 6.15027 12.6932 6.27744C12.818 6.4046 12.8804 6.55604 12.8804 6.73176C12.8804 6.92134 12.818 7.07972 12.6932 7.2069C12.5683 7.33404 12.4157 7.3976 12.2354 7.3976C12.055 7.3976 11.9001 7.33404 11.7707 7.2069C11.6412 7.07972 11.5764 6.92134 11.5764 6.73176C11.5764 6.55604 11.64 6.4046 11.7672 6.27744C11.8943 6.15027 12.0504 6.08669 12.2354 6.08669Z" fill="#0C3751"/>
</svg>
