<svg width="19" height="14" viewBox="0 0 19 14" fill="none" xmlns="http://www.w3.org/2000/svg">
<path d="M2.17795 12.9081H13.7821C14.4018 12.9081 14.885 12.729 15.2318 12.3706C15.5786 12.0123 15.752 11.4747 15.752 10.758V7.95578C15.6133 7.97889 15.4376 7.9916 15.2248 7.99392C15.0121 7.99624 14.8156 7.98353 14.6353 7.95578V10.7094C14.6353 11.0655 14.5405 11.3348 14.3509 11.5175C14.1613 11.7001 13.8954 11.7915 13.5532 11.7915H2.19182C1.84502 11.7915 1.57913 11.7001 1.39417 11.5175C1.2092 11.3348 1.11672 11.0632 1.11672 10.7025V2.36523C1.11672 2.02304 1.20458 1.76409 1.38029 1.58838C1.55601 1.41266 1.81033 1.3248 2.14327 1.3248H3.60679C3.838 1.3248 4.03337 1.35717 4.1929 1.42191C4.35243 1.48665 4.52005 1.593 4.69577 1.74097L5.11888 2.09472C5.26685 2.21957 5.41251 2.31898 5.55586 2.39297C5.6992 2.46696 5.85642 2.52013 6.02751 2.5525C6.19861 2.58487 6.39744 2.60106 6.62402 2.60106H10.7372C10.7788 2.40684 10.8273 2.22072 10.8828 2.0427C10.9383 1.86467 11.0146 1.67855 11.1117 1.48433H6.91534C6.67951 1.48433 6.48067 1.45312 6.31883 1.3907C6.15699 1.32827 5.98821 1.22307 5.81249 1.0751L5.38939 0.728295C5.23679 0.59882 5.08997 0.49709 4.94894 0.423105C4.8079 0.349119 4.653 0.295942 4.48422 0.263574C4.31544 0.231205 4.11776 0.21502 3.89118 0.21502H1.91437C1.304 0.21502 0.832338 0.388425 0.499403 0.735234C0.166468 1.08204 0 1.60456 0 2.3028V10.758C0 11.4747 0.181496 12.0123 0.544488 12.3706C0.907478 12.729 1.45197 12.9081 2.17795 12.9081ZM0.679742 5.13969H10.9314C10.8666 4.97322 10.8134 4.80213 10.7718 4.62641C10.7302 4.45069 10.7002 4.27267 10.6817 4.09233H0.679742V5.13969ZM15.1277 7.04713C15.604 7.04713 16.0549 6.95465 16.4803 6.76968C16.9057 6.58471 17.2814 6.33039 17.6074 6.0067C17.9334 5.68302 18.1889 5.30847 18.3738 4.88305C18.5588 4.45763 18.6513 4.00447 18.6513 3.52356C18.6513 3.03803 18.56 2.58256 18.3773 2.15714C18.1947 1.73172 17.9415 1.35717 17.6178 1.03349C17.2941 0.709799 16.9196 0.456629 16.4942 0.273978C16.0687 0.0913259 15.6133 0 15.1277 0C14.6468 0 14.1937 0.0913259 13.7683 0.273978C13.3428 0.456629 12.9683 0.710955 12.6446 1.03695C12.3209 1.36295 12.0666 1.73751 11.8816 2.16061C11.6967 2.58372 11.6042 3.03803 11.6042 3.52356C11.6042 4.00909 11.6967 4.46457 11.8816 4.88999C12.0666 5.3154 12.3209 5.68995 12.6446 6.01364C12.9683 6.33733 13.3428 6.59049 13.7683 6.77315C14.1937 6.9558 14.6468 7.04713 15.1277 7.04713ZM15.1277 6.2356C14.7902 6.2356 14.4803 6.18473 14.1983 6.083C13.9162 5.98127 13.6792 5.85411 13.4874 5.70151C13.2955 5.54892 13.1625 5.39401 13.0885 5.23679V5.20211C13.1625 5.05414 13.2897 4.91079 13.47 4.77207C13.6503 4.63335 13.8792 4.51774 14.1566 4.42526C14.4341 4.33278 14.7555 4.28654 15.1208 4.28654C15.4907 4.28654 15.8144 4.33278 16.0918 4.42526C16.3693 4.51774 16.5982 4.6345 16.7785 4.77553C16.9589 4.91657 17.0861 5.05876 17.1601 5.20211V5.23679C17.0814 5.39401 16.9462 5.55008 16.7543 5.70498C16.5624 5.85989 16.3277 5.98705 16.0503 6.08647C15.7728 6.18589 15.4653 6.2356 15.1277 6.2356ZM15.1208 3.73165C14.8017 3.73165 14.5335 3.61373 14.3162 3.3779C14.0989 3.14207 13.9902 2.84382 13.9902 2.48314C13.9902 2.15945 14.1 1.87854 14.3197 1.6404C14.5393 1.40226 14.8064 1.28319 15.1208 1.28319C15.4399 1.28319 15.7081 1.40226 15.9254 1.6404C16.1428 1.87854 16.2514 2.15945 16.2514 2.48314C16.2514 2.84382 16.1428 3.14207 15.9254 3.3779C15.7081 3.61373 15.4399 3.73165 15.1208 3.73165Z" fill="#0C3751"/>
</svg>
