<svg width="22" height="21" viewBox="0 0 22 21" fill="none" xmlns="http://www.w3.org/2000/svg">
<g clip-path="url(#clip0_668_1147)">
<path d="M0 5.30274C0 6.12956 0.244141 6.94011 0.732422 7.73438C1.2207 8.52865 1.92708 9.24805 2.85156 9.89258C3.77604 10.5371 4.90072 11.0498 6.22559 11.4307C7.55046 11.8116 9.04949 12.002 10.7227 12.002C12.3308 12.002 13.8265 11.8067 15.21 11.416C16.5935 11.0254 17.7865 10.4655 18.7891 9.73633C18.1966 9.47591 17.7344 9.06576 17.4023 8.50587C16.6732 9.2155 15.7357 9.75588 14.5898 10.127C13.444 10.4981 12.155 10.6836 10.7227 10.6836C9.26434 10.6836 8.02572 10.5176 7.00684 10.1855C5.98796 9.85351 5.16276 9.43035 4.53125 8.91603C3.89974 8.4017 3.43912 7.86459 3.14941 7.3047C2.8597 6.7448 2.71484 6.23698 2.71484 5.78125C2.71484 5.32553 2.78646 4.92839 2.92969 4.58984C2.46745 4.32943 2.09798 3.96648 1.82129 3.50098C1.5446 3.03548 1.39974 2.53581 1.38672 2.00196C0.46224 2.86784 0 3.9681 0 5.30274ZM16.084 14.1504C16.084 13.3171 15.9326 12.4186 15.6299 11.4551C15.3272 10.4916 14.9056 9.52151 14.3652 8.54492C13.8249 7.56836 13.1934 6.63412 12.4707 5.7422C11.748 4.85027 10.9635 4.05112 10.1172 3.34473C9.27084 2.63835 8.39518 2.08009 7.49023 1.66992C7.49674 1.70899 7.5 1.74968 7.5 1.792C7.5 1.83432 7.5 1.87501 7.5 1.91407C7.5 2.44141 7.36979 2.94271 7.10938 3.41797C7.81901 3.63281 8.51074 3.9795 9.18457 4.45802C9.85839 4.93653 10.4866 5.50945 11.0693 6.17677C11.652 6.84408 12.1631 7.56674 12.6025 8.34474C13.042 9.12273 13.3854 9.92515 13.6328 10.752C13.8802 11.5788 14.0039 12.3893 14.0039 13.1836C14.0039 13.9453 13.8672 14.6159 13.5938 15.1953C13.3203 15.7748 12.9509 16.2289 12.4854 16.5576C12.0199 16.8864 11.4909 17.0508 10.8984 17.0508C10.9701 17.3633 11.0059 17.6497 11.0059 17.9102C11.0059 18.5937 10.8008 19.209 10.3906 19.7559C10.4362 19.7624 10.4867 19.7656 10.542 19.7656C10.5973 19.7656 10.651 19.7656 10.7031 19.7656C11.7448 19.7656 12.6709 19.5231 13.4814 19.0381C14.292 18.553 14.9284 17.889 15.3906 17.0459C15.8529 16.2028 16.084 15.2376 16.084 14.1504ZM16.7676 1.01562C15.8561 1.01562 14.943 1.2207 14.0283 1.63086C13.1136 2.04102 12.2298 2.59766 11.377 3.30079C10.5241 4.00391 9.7331 4.80307 9.00391 5.69825C8.27474 6.59343 7.63509 7.53256 7.08496 8.51562C6.53483 9.4987 6.10677 10.4736 5.80078 11.4404C5.49479 12.4072 5.3418 13.3105 5.3418 14.1504C5.3418 14.7624 5.42643 15.3614 5.5957 15.9473C5.81705 15.6218 6.12955 15.3613 6.5332 15.166C6.93685 14.9707 7.31771 14.8665 7.67578 14.8535C7.59115 14.5996 7.52604 14.3327 7.48047 14.0527C7.4349 13.7728 7.41211 13.4831 7.41211 13.1836C7.41211 12.3112 7.56836 11.4095 7.88086 10.4785C8.19336 9.54753 8.62467 8.64747 9.1748 7.77833C9.72493 6.90918 10.3597 6.12793 11.0791 5.43458C11.7985 4.74122 12.5667 4.19108 13.3838 3.78418C14.2009 3.37729 15.0293 3.17384 15.8691 3.17384C17.054 3.17384 17.8874 3.57097 18.3691 4.36524C18.8704 4.03972 19.4238 3.87696 20.0293 3.87696C20.472 3.87696 20.9017 3.97136 21.3184 4.16017C21.0905 3.1836 20.5746 2.41537 19.7705 1.85547C18.9665 1.29557 17.9655 1.01562 16.7676 1.01562Z" fill="#0C3751"/>
<path d="M4.44336 3.82812C4.79492 3.82812 5.11556 3.74349 5.40527 3.57422C5.69498 3.40495 5.9261 3.17545 6.09863 2.88574C6.27116 2.59603 6.35742 2.27213 6.35742 1.91406C6.35742 1.38672 6.17025 0.935874 5.7959 0.561523C5.42155 0.187174 4.97071 0 4.44336 0C3.90951 0 3.4554 0.187174 3.08105 0.561523C2.7067 0.935874 2.51953 1.38672 2.51953 1.91406C2.51953 2.27213 2.60579 2.59603 2.77832 2.88574C2.95085 3.17545 3.18197 3.40495 3.47168 3.57422C3.76139 3.74349 4.08529 3.82812 4.44336 3.82812ZM20.0293 8.85742C20.3874 8.85742 20.7113 8.77116 21.001 8.59863C21.2907 8.4261 21.5202 8.19498 21.6895 7.90527C21.8588 7.61556 21.9434 7.29492 21.9434 6.94336C21.9434 6.58529 21.8571 6.26139 21.6846 5.97168C21.5121 5.68197 21.2809 5.45085 20.9912 5.27832C20.7015 5.10579 20.3808 5.01953 20.0293 5.01953C19.6778 5.01953 19.3571 5.10579 19.0674 5.27832C18.7777 5.45085 18.5465 5.68197 18.374 5.97168C18.2015 6.26139 18.1152 6.58529 18.1152 6.94336C18.1152 7.29492 18.2015 7.61556 18.374 7.90527C18.5465 8.19498 18.7777 8.4261 19.0674 8.59863C19.3571 8.77116 19.6778 8.85742 20.0293 8.85742ZM7.94922 19.8242C8.30078 19.8242 8.62142 19.7396 8.91113 19.5703C9.20084 19.401 9.43196 19.1715 9.60449 18.8818C9.77702 18.5921 9.86328 18.2683 9.86328 17.9102C9.86328 17.5586 9.77702 17.2379 9.60449 16.9482C9.43196 16.6585 9.20084 16.4274 8.91113 16.2549C8.62142 16.0824 8.30078 15.9961 7.94922 15.9961C7.59115 15.9961 7.26725 16.0824 6.97754 16.2549C6.68783 16.4274 6.45833 16.6585 6.28906 16.9482C6.11979 17.2379 6.03516 17.5586 6.03516 17.9102C6.03516 18.2617 6.11979 18.5824 6.28906 18.8721C6.45833 19.1618 6.68783 19.3929 6.97754 19.5654C7.26725 19.7379 7.59115 19.8242 7.94922 19.8242Z" fill="#0C3751"/>
</g>
<defs>
<clipPath id="clip0_668_1147">
<rect width="21.9434" height="20.6152" fill="white"/>
</clipPath>
</defs>
</svg>
