<svg width="21" height="21" viewBox="0 0 21 21" fill="none" xmlns="http://www.w3.org/2000/svg">
<path d="M9.46289 20.8789H11.4355C11.8132 20.8789 12.1371 20.7731 12.4072 20.5615C12.6774 20.3499 12.8548 20.0618 12.9395 19.6973L13.3594 17.8711L13.6719 17.7637L15.2637 18.7402C15.5762 18.9421 15.9049 19.0202 16.25 18.9746C16.5951 18.929 16.9011 18.7728 17.168 18.5059L18.5352 17.1484C18.8021 16.8815 18.9583 16.5755 19.0039 16.2305C19.0495 15.8854 18.9714 15.5566 18.7695 15.2441L17.7734 13.6621L17.8906 13.3691L19.7168 12.9395C20.0749 12.8548 20.3613 12.6758 20.5762 12.4023C20.791 12.1289 20.8984 11.8066 20.8984 11.4355V9.50195C20.8984 9.13086 20.791 8.80859 20.5762 8.53516C20.3613 8.26172 20.0749 8.08268 19.7168 7.99805L17.9102 7.55859L17.7832 7.24609L18.7793 5.66406C18.9811 5.35156 19.0592 5.02441 19.0137 4.68262C18.9681 4.34082 18.8118 4.0332 18.5449 3.75977L17.1777 2.39258C16.9173 2.13216 16.6146 1.97916 16.2695 1.93359C15.9245 1.88802 15.5957 1.96289 15.2832 2.1582L13.6914 3.13477L13.3594 3.00781L12.9395 1.18164C12.8548 0.823567 12.6774 0.537109 12.4072 0.322266C12.1371 0.107422 11.8132 0 11.4355 0H9.46289C9.08528 0 8.76139 0.107422 8.49121 0.322266C8.22103 0.537109 8.04362 0.823567 7.95898 1.18164L7.5293 3.00781L7.19727 3.13477L5.61523 2.1582C5.29622 1.96289 4.96582 1.88802 4.62402 1.93359C4.28223 1.97916 3.97787 2.13216 3.71094 2.39258L2.35352 3.75977C2.08008 4.0332 1.9222 4.34082 1.87988 4.68262C1.83757 5.02441 1.91732 5.35156 2.11914 5.66406L3.10547 7.24609L2.98828 7.55859L1.18164 7.99805C0.817057 8.08268 0.528972 8.26172 0.317383 8.53516C0.105794 8.80859 0 9.13086 0 9.50195V11.4355C0 11.8066 0.107422 12.1289 0.322266 12.4023C0.537109 12.6758 0.823567 12.8548 1.18164 12.9395L3.00781 13.3691L3.11523 13.6621L2.12891 15.2441C1.92708 15.5566 1.84733 15.8854 1.88965 16.2305C1.93196 16.5755 2.08984 16.8815 2.36328 17.1484L3.7207 18.5059C3.98763 18.7728 4.29362 18.929 4.63867 18.9746C4.98372 19.0202 5.31576 18.9421 5.63477 18.7402L7.2168 17.7637L7.5293 17.8711L7.95898 19.6973C8.04362 20.0618 8.22103 20.3499 8.49121 20.5615C8.76139 20.7731 9.08528 20.8789 9.46289 20.8789ZM9.61914 19.3555C9.45638 19.3555 9.36198 19.2806 9.33594 19.1309L8.75 16.709C8.45052 16.6374 8.16569 16.5446 7.89551 16.4307C7.62532 16.3168 7.38606 16.1947 7.17773 16.0645L5.04883 17.373C4.93164 17.4577 4.8112 17.4414 4.6875 17.3242L3.53516 16.1719C3.43099 16.0742 3.41797 15.9538 3.49609 15.8105L4.80469 13.7012C4.69401 13.4929 4.58008 13.2552 4.46289 12.9883C4.3457 12.7214 4.24805 12.4382 4.16992 12.1387L1.74805 11.5625C1.59831 11.5364 1.52344 11.442 1.52344 11.2793V9.64844C1.52344 9.49219 1.59831 9.39778 1.74805 9.36523L4.16016 8.7793C4.23828 8.46029 4.34082 8.16406 4.46777 7.89062C4.59472 7.61719 4.70052 7.38932 4.78516 7.20703L3.48633 5.09766C3.4017 4.95443 3.41146 4.82747 3.51562 4.7168L4.67773 3.58398C4.79492 3.47981 4.91862 3.46354 5.04883 3.53516L7.1582 4.81445C7.36653 4.69726 7.6123 4.58008 7.89551 4.46289C8.17871 4.3457 8.4668 4.24805 8.75977 4.16992L9.33594 1.74805C9.36198 1.59831 9.45638 1.52344 9.61914 1.52344H11.2793C11.442 1.52344 11.5332 1.59831 11.5527 1.74805L12.1484 4.18945C12.4544 4.26758 12.7392 4.36361 13.0029 4.47754C13.2666 4.59147 13.5058 4.70703 13.7207 4.82422L15.8398 3.53516C15.9765 3.46354 16.1035 3.47981 16.2207 3.58398L17.373 4.7168C17.4837 4.82747 17.4935 4.95443 17.4023 5.09766L16.1035 7.20703C16.1946 7.38932 16.3021 7.61719 16.4258 7.89062C16.5495 8.16406 16.6504 8.46029 16.7285 8.7793L19.1504 9.36523C19.3001 9.39778 19.375 9.49219 19.375 9.64844V11.2793C19.375 11.442 19.3001 11.5364 19.1504 11.5625L16.7188 12.1387C16.6407 12.4382 16.5446 12.7214 16.4307 12.9883C16.3168 13.2552 16.2012 13.4929 16.084 13.7012L17.3926 15.8105C17.4772 15.9538 17.4642 16.0742 17.3535 16.1719L16.2109 17.3242C16.0872 17.4414 15.9635 17.4577 15.8398 17.373L13.7109 16.0645C13.5026 16.1947 13.2649 16.3168 12.998 16.4307C12.7311 16.5446 12.4479 16.6374 12.1484 16.709L11.5527 19.1309C11.5332 19.2806 11.442 19.3555 11.2793 19.3555H9.61914ZM10.4492 14.1699C11.1328 14.1699 11.7562 14.0023 12.3193 13.667C12.8825 13.3317 13.3317 12.8809 13.667 12.3145C14.0023 11.748 14.1699 11.123 14.1699 10.4395C14.1699 9.76239 14.0023 9.14225 13.667 8.5791C13.3317 8.01595 12.8825 7.56674 12.3193 7.23145C11.7562 6.89616 11.1328 6.72852 10.4492 6.72852C9.76562 6.72852 9.14225 6.89616 8.5791 7.23145C8.01595 7.56674 7.56511 8.01595 7.22656 8.5791C6.88802 9.14225 6.71875 9.76239 6.71875 10.4395C6.71875 11.123 6.88802 11.7464 7.22656 12.3096C7.56511 12.8727 8.01595 13.3236 8.5791 13.6621C9.14225 14.0006 9.76562 14.1699 10.4492 14.1699ZM10.4492 12.6562C10.0456 12.6562 9.67611 12.5569 9.34082 12.3584C9.00553 12.1598 8.73861 11.8929 8.54004 11.5576C8.34147 11.2223 8.24219 10.8496 8.24219 10.4395C8.24219 10.0358 8.34147 9.66797 8.54004 9.33594C8.73861 9.00391 9.00553 8.73861 9.34082 8.54004C9.67611 8.34147 10.0456 8.24219 10.4492 8.24219C10.8463 8.24219 11.2109 8.34147 11.543 8.54004C11.875 8.73861 12.1403 9.00391 12.3389 9.33594C12.5374 9.66797 12.6367 10.0358 12.6367 10.4395C12.6367 10.8431 12.5374 11.2126 12.3389 11.5479C12.1403 11.8832 11.875 12.1517 11.543 12.3535C11.2109 12.5553 10.8463 12.6562 10.4492 12.6562Z" fill="#0C3751"/>
</svg>
