<svg width="130" height="21" viewBox="0 0 130 21" fill="none" xmlns="http://www.w3.org/2000/svg">
<rect width="130" height="21" fill="#1E1E1E"/>
<g id="Qayedny/Messaging/Chat">
<rect x="-62" y="-357" width="414" height="896" rx="40" fill="white"/>
<g id="Group 381">
<g id="audio-container">
<rect x="-40" y="-12" width="226.906" height="45" rx="14" fill="#0C3751" fill-opacity="0.1"/>
<path id="sound-wave" fill-rule="evenodd" clip-rule="evenodd" d="M0 1C0 0.447715 0.447715 0 1 0C1.55228 0 2 0.447715 2 1V20C2 20.5523 1.55228 21 1 21C0.447715 21 0 20.5523 0 20V1ZM4 4C4 3.44772 4.44772 3 5 3C5.55228 3 6 3.44772 6 4V17C6 17.5523 5.55228 18 5 18C4.44772 18 4 17.5523 4 17V4ZM9 5C8.44771 5 8 5.44771 8 6V15C8 15.5523 8.44771 16 9 16C9.55229 16 10 15.5523 10 15V6C10 5.44772 9.55229 5 9 5ZM12 2C12 1.44771 12.4477 1 13 1C13.5523 1 14 1.44772 14 2V19C14 19.5523 13.5523 20 13 20C12.4477 20 12 19.5523 12 19V2ZM17 2C16.4477 2 16 2.44772 16 3V18C16 18.5523 16.4477 19 17 19C17.5523 19 18 18.5523 18 18V3C18 2.44772 17.5523 2 17 2ZM20 7C20 6.44772 20.4477 6 21 6C21.5523 6 22 6.44772 22 7V14C22 14.5523 21.5523 15 21 15C20.4477 15 20 14.5523 20 14V7ZM25 0C24.4477 0 24 0.447715 24 1V20C24 20.5523 24.4477 21 25 21C25.5523 21 26 20.5523 26 20V1C26 0.447715 25.5523 0 25 0ZM28 9C28 8.44771 28.4477 8 29 8C29.5523 8 30 8.44771 30 9V12C30 12.5523 29.5523 13 29 13C28.4477 13 28 12.5523 28 12V9ZM33 3C32.4477 3 32 3.44772 32 4V17C32 17.5523 32.4477 18 33 18C33.5523 18 34 17.5523 34 17V4C34 3.44772 33.5523 3 33 3ZM36 2C36 1.44771 36.4477 1 37 1C37.5523 1 38 1.44772 38 2V19C38 19.5523 37.5523 20 37 20C36.4477 20 36 19.5523 36 19V2ZM41 3C40.4477 3 40 3.44772 40 4V17C40 17.5523 40.4477 18 41 18C41.5523 18 42 17.5523 42 17V4C42 3.44772 41.5523 3 41 3ZM44 1C44 0.447715 44.4477 0 45 0C45.5523 0 46 0.447715 46 1V20C46 20.5523 45.5523 21 45 21C44.4477 21 44 20.5523 44 20V1ZM49 4C48.4477 4 48 4.44772 48 5V16C48 16.5523 48.4477 17 49 17C49.5523 17 50 16.5523 50 16V5C50 4.44772 49.5523 4 49 4ZM52 3C52 2.44772 52.4477 2 53 2C53.5523 2 54 2.44772 54 3V18C54 18.5523 53.5523 19 53 19C52.4477 19 52 18.5523 52 18V3ZM57 6C56.4477 6 56 6.44772 56 7V14C56 14.5523 56.4477 15 57 15C57.5523 15 58 14.5523 58 14V7C58 6.44772 57.5523 6 57 6ZM60 1C60 0.447715 60.4477 0 61 0C61.5523 0 62 0.447715 62 1V20C62 20.5523 61.5523 21 61 21C60.4477 21 60 20.5523 60 20V1ZM65 8C64.4477 8 64 8.44771 64 9V12C64 12.5523 64.4477 13 65 13C65.5523 13 66 12.5523 66 12V9C66 8.44771 65.5523 8 65 8ZM68 4C68 3.44772 68.4477 3 69 3C69.5523 3 70 3.44772 70 4V17C70 17.5523 69.5523 18 69 18C68.4477 18 68 17.5523 68 17V4ZM73 1C72.4477 1 72 1.44771 72 2V19C72 19.5523 72.4477 20 73 20C73.5523 20 74 19.5523 74 19V2C74 1.44772 73.5523 1 73 1ZM76 4C76 3.44772 76.4477 3 77 3C77.5523 3 78 3.44772 78 4V17C78 17.5523 77.5523 18 77 18C76.4477 18 76 17.5523 76 17V4ZM81 0C80.4477 0 80 0.447715 80 1V20C80 20.5523 80.4477 21 81 21C81.5523 21 82 20.5523 82 20V1C82 0.447715 81.5523 0 81 0ZM84 5C84 4.44772 84.4477 4 85 4C85.5523 4 86 4.44772 86 5V16C86 16.5523 85.5523 17 85 17C84.4477 17 84 16.5523 84 16V5ZM89 0C88.4477 0 88 0.447715 88 1V20C88 20.5523 88.4477 21 89 21C89.5523 21 90 20.5523 90 20V1C90 0.447715 89.5523 0 89 0ZM92 5C92 4.44772 92.4477 4 93 4C93.5523 4 94 4.44772 94 5V16C94 16.5523 93.5523 17 93 17C92.4477 17 92 16.5523 92 16V5ZM97 2C96.4477 2 96 2.44772 96 3V18C96 18.5523 96.4477 19 97 19C97.5523 19 98 18.5523 98 18V3C98 2.44772 97.5523 2 97 2ZM100 7C100 6.44772 100.448 6 101 6C101.552 6 102 6.44772 102 7V14C102 14.5523 101.552 15 101 15C100.448 15 100 14.5523 100 14V7ZM105 0C104.448 0 104 0.447715 104 1V20C104 20.5523 104.448 21 105 21C105.552 21 106 20.5523 106 20V1C106 0.447715 105.552 0 105 0ZM108 9C108 8.44771 108.448 8 109 8C109.552 8 110 8.44771 110 9V12C110 12.5523 109.552 13 109 13C108.448 13 108 12.5523 108 12V9ZM113 3C112.448 3 112 3.44772 112 4V17C112 17.5523 112.448 18 113 18C113.552 18 114 17.5523 114 17V4C114 3.44772 113.552 3 113 3ZM116 2C116 1.44771 116.448 1 117 1C117.552 1 118 1.44772 118 2V19C118 19.5523 117.552 20 117 20C116.448 20 116 19.5523 116 19V2ZM121 3C120.448 3 120 3.44772 120 4V17C120 17.5523 120.448 18 121 18C121.552 18 122 17.5523 122 17V4C122 3.44772 121.552 3 121 3ZM124 1C124 0.447715 124.448 0 125 0C125.552 0 126 0.447715 126 1V20C126 20.5523 125.552 21 125 21C124.448 21 124 20.5523 124 20V1ZM129 4C128.448 4 128 4.44772 128 5V16C128 16.5523 128.448 17 129 17C129.552 17 130 16.5523 130 16V5C130 4.44772 129.552 4 129 4Z" fill="#0C3751"/>
</g>
</g>
</g>
</svg>