<svg width="14" height="22" viewBox="0 0 14 22" fill="none" xmlns="http://www.w3.org/2000/svg">
<g clip-path="url(#clip0_668_1210)">
<path d="M4.62891 21.4191L13.5059 10.0031C13.6752 9.78823 13.7598 9.57988 13.7598 9.37805C13.7598 9.18925 13.6947 9.033 13.5645 8.9093C13.4342 8.7856 13.2649 8.72375 13.0566 8.72375H7.53906L10.4492 1.1261C10.5469 0.878703 10.5648 0.662232 10.5029 0.476685C10.4411 0.291138 10.3321 0.157674 10.1758 0.0762939C10.0195 -0.00508627 9.84538 -0.0213623 9.65332 0.0274658C9.46126 0.076294 9.28711 0.204875 9.13086 0.413208L0.253906 11.8195C0.0846353 12.0343 0 12.2426 0 12.4445C0 12.6333 0.065104 12.7912 0.195312 12.9181C0.325521 13.045 0.494792 13.1085 0.703125 13.1085H6.2207L3.31055 20.6964C3.21289 20.9503 3.19499 21.1684 3.25684 21.3507C3.31869 21.533 3.42773 21.6648 3.58398 21.7462C3.74023 21.8276 3.91439 21.8455 4.10645 21.7999C4.2985 21.7544 4.47266 21.6274 4.62891 21.4191ZM5.20508 18.7921L8.47656 11.6534H2.44141L8.81836 3.18665L8.54492 3.04016L5.2832 10.1788H11.3086L4.93164 18.6456L5.20508 18.7921Z" fill="#0C3751"/>
</g>
<defs>
<clipPath id="clip0_668_1210">
<rect width="13.7598" height="21.9885" fill="white"/>
</clipPath>
</defs>
</svg>
