<svg width="17" height="21" viewBox="0 0 17 21" fill="none" xmlns="http://www.w3.org/2000/svg">
<g clip-path="url(#clip0_668_1156)">
<path d="M0 12.0508C0 12.9427 0.130208 13.7175 0.390625 14.375C0.651042 15.0325 1.07096 15.6445 1.65039 16.2109C2.22982 16.7773 2.99642 17.3633 3.9502 17.9688C4.90397 18.5743 6.07422 19.2676 7.46094 20.0488C7.58463 20.1139 7.70508 20.1628 7.82227 20.1953C7.93946 20.2278 8.03711 20.2441 8.11523 20.2441C8.19336 20.2441 8.29101 20.2278 8.4082 20.1953C8.52539 20.1628 8.64583 20.1139 8.76953 20.0488C10.1628 19.2676 11.3363 18.5759 12.29 17.9736C13.2438 17.3714 14.0104 16.7871 14.5898 16.2207C15.1693 15.6543 15.5876 15.0407 15.8447 14.3799C16.1019 13.7191 16.2305 12.9427 16.2305 12.0508V4.58008C16.2305 4.06575 16.1231 3.69791 15.9082 3.47656C15.6933 3.25521 15.3776 3.05664 14.9609 2.88086C14.733 2.78321 14.4173 2.65788 14.0137 2.50488C13.61 2.35189 13.1657 2.18587 12.6807 2.00684C12.1956 1.8278 11.709 1.65039 11.2207 1.47461C10.7324 1.29883 10.2865 1.13932 9.88281 0.996094C9.47916 0.852865 9.16341 0.742187 8.93555 0.664062C8.80534 0.625 8.67024 0.59082 8.53027 0.561523C8.3903 0.532226 8.25195 0.517578 8.11523 0.517578C7.97852 0.517578 7.8418 0.533854 7.70508 0.566406C7.56836 0.598958 7.4349 0.63151 7.30469 0.664062C7.07031 0.729167 6.7513 0.831706 6.34766 0.97168C5.94401 1.11165 5.49968 1.27116 5.01465 1.4502C4.52962 1.62923 4.04297 1.8099 3.55469 1.99219C3.06641 2.17448 2.62045 2.34375 2.2168 2.5C1.81315 2.65625 1.4974 2.78321 1.26953 2.88086C0.859375 3.05013 0.545247 3.24707 0.327148 3.47168C0.109049 3.69629 0 4.06575 0 4.58008V12.0508ZM1.55273 11.6895V10.1172H8.11523V2.08984C8.16732 2.08984 8.22591 2.09635 8.29102 2.10938C8.35612 2.1224 8.42773 2.14518 8.50586 2.17773C8.79883 2.29492 9.14062 2.42676 9.53125 2.57324C9.92188 2.71973 10.3337 2.87272 10.7666 3.03223C11.1995 3.19173 11.6325 3.34961 12.0654 3.50586C12.4983 3.66211 12.9118 3.81022 13.3057 3.9502C13.6996 4.09017 14.0495 4.21224 14.3555 4.31641C14.4857 4.36198 14.572 4.42709 14.6143 4.51172C14.6566 4.59635 14.6777 4.72005 14.6777 4.88281V10.1172H8.11523V18.4766C8.03711 18.4766 7.95248 18.4587 7.86133 18.4229C7.77018 18.387 7.653 18.3268 7.50977 18.2422C6.38346 17.5586 5.43782 16.971 4.67285 16.4795C3.90788 15.988 3.29753 15.5192 2.8418 15.0732C2.38607 14.6273 2.05729 14.1406 1.85547 13.6133C1.65364 13.086 1.55273 12.4447 1.55273 11.6895Z" fill="#0C3751"/>
</g>
<defs>
<clipPath id="clip0_668_1156">
<rect width="16.2305" height="20.2441" fill="white"/>
</clipPath>
</defs>
</svg>
