<svg width="25" height="25" viewBox="0 0 25 25" fill="none" xmlns="http://www.w3.org/2000/svg">
<path d="M20.8071 16.952C20.9326 17.1707 20.9991 17.4192 21 17.6723C21.0008 17.9255 20.936 18.1744 20.8119 18.394C20.6879 18.6135 20.5091 18.796 20.2935 18.9229C20.0779 19.0498 19.8332 19.1168 19.584 19.117H15.9707C15.8081 19.9306 15.3737 20.6621 14.741 21.1875C14.1083 21.713 13.3163 22 12.4991 22C11.682 22 10.89 21.713 10.2573 21.1875C9.62457 20.6621 9.19011 19.9306 9.0275 19.117H5.41419C5.16517 19.1165 4.92068 19.0493 4.70535 18.9222C4.49001 18.7952 4.31144 18.6127 4.18761 18.3932C4.06378 18.1737 3.99908 17.9249 4.00001 17.6719C4.00094 17.4189 4.06748 17.1706 4.19292 16.952C4.99086 15.5528 5.41419 13.5633 5.41419 11.1986C5.41419 9.28938 6.16063 7.4584 7.48932 6.10841C8.818 4.75842 10.6201 4 12.4991 4C14.3782 4 16.1802 4.75842 17.5089 6.10841C18.8376 7.4584 19.584 9.28938 19.584 11.1986C19.584 13.5624 20.0074 15.5519 20.8071 16.952ZM14.5024 19.117H10.4959C10.6426 19.5376 10.914 19.9016 11.2728 20.1591C11.6315 20.4166 12.0599 20.5548 12.4991 20.5548C12.9383 20.5548 13.3667 20.4166 13.7255 20.1591C14.0842 19.9016 14.3556 19.5376 14.5024 19.117ZM19.584 17.6773C18.6417 16.0333 18.1671 13.8539 18.1671 11.1986C18.1671 9.67122 17.5699 8.20643 16.507 7.12644C15.444 6.04644 14.0023 5.43971 12.4991 5.43971C10.9959 5.43971 9.55422 6.04644 8.49128 7.12644C7.42833 8.20643 6.83117 9.67122 6.83117 11.1986C6.83117 13.8548 6.35471 16.0342 5.41419 17.6773H19.584Z" fill="#0C3751"/>
</svg>
