<svg width="13" height="13" viewBox="0 0 13 13" fill="none" xmlns="http://www.w3.org/2000/svg">
<path d="M5.35835 5.83333C4.78149 5.83333 4.21758 5.66227 3.73793 5.34179C3.25829 5.0213 2.88445 4.56578 2.6637 4.03283C2.44294 3.49988 2.38518 2.91343 2.49772 2.34765C2.61026 1.78188 2.88805 1.26218 3.29595 0.854273C3.70386 0.44637 4.22356 0.168584 4.78933 0.0560442C5.35511 -0.056496 5.94156 0.00126374 6.47451 0.222019C7.00746 0.442775 7.46298 0.816611 7.78347 1.29625C8.10395 1.7759 8.27501 2.33981 8.27501 2.91667C8.27501 3.69022 7.96772 4.43208 7.42074 4.97906C6.87376 5.52604 6.1319 5.83333 5.35835 5.83333ZM5.35835 0.866668C4.9463 0.866668 4.54351 0.988853 4.20091 1.21777C3.85831 1.44669 3.59128 1.77206 3.4336 2.15274C3.27592 2.53342 3.23466 2.95231 3.31504 3.35644C3.39543 3.76057 3.59385 4.13178 3.88521 4.42314C4.17657 4.7145 4.54778 4.91292 4.95191 4.9933C5.35604 5.07369 5.77492 5.03243 6.1556 4.87475C6.53628 4.71707 6.86166 4.45004 7.09058 4.10744C7.3195 3.76484 7.44168 3.36205 7.44168 2.95C7.44168 2.67641 7.38779 2.40551 7.2831 2.15274C7.1784 1.89998 7.02494 1.67032 6.83149 1.47686C6.63803 1.28341 6.40837 1.12995 6.1556 1.02525C5.90284 0.920555 5.63193 0.866668 5.35835 0.866668ZM7.67918 6.3375C5.42436 5.83012 3.06544 6.0745 0.962514 7.03333C0.673303 7.17148 0.42929 7.38895 0.258889 7.66041C0.0884876 7.93187 -0.00128875 8.24616 1.39789e-05 8.56667V11.0458C1.39777e-05 11.1006 0.0107914 11.1547 0.0317309 11.2053C0.0526704 11.2558 0.0833617 11.3018 0.122053 11.3405C0.160744 11.3792 0.206677 11.4098 0.257229 11.4308C0.307782 11.4517 0.361963 11.4625 0.416681 11.4625C0.471398 11.4625 0.52558 11.4517 0.576132 11.4308C0.626684 11.4098 0.672617 11.3792 0.711308 11.3405C0.75 11.3018 0.780691 11.2558 0.80163 11.2053C0.82257 11.1547 0.833347 11.1006 0.833347 11.0458V8.56667C0.829719 8.40446 0.873522 8.24472 0.95938 8.10705C1.04524 7.96938 1.16942 7.85977 1.31668 7.79167C2.58346 7.20675 3.96306 6.90665 5.35835 6.9125C6.14014 6.9115 6.91927 7.00382 7.67918 7.1875V6.3375ZM7.73751 10.3H10.2958V10.8833H7.73751V10.3Z" fill="#0C3751" fill-opacity="0.8"/>
<path d="M12.3333 7.82506H10.1792V8.6584H11.9167V12.1459H6.01252V8.6584H8.63752V8.8334C8.63752 8.94391 8.68142 9.04989 8.75956 9.12803C8.8377 9.20617 8.94368 9.25006 9.05418 9.25006C9.16469 9.25006 9.27067 9.20617 9.34881 9.12803C9.42695 9.04989 9.47085 8.94391 9.47085 8.8334V7.21257C9.47085 7.10206 9.42695 6.99608 9.34881 6.91794C9.27067 6.8398 9.16469 6.7959 9.05418 6.7959C8.94368 6.7959 8.8377 6.8398 8.75956 6.91794C8.68142 6.99608 8.63752 7.10206 8.63752 7.21257V7.82506H5.59585C5.48534 7.82506 5.37936 7.86896 5.30122 7.9471C5.22308 8.02524 5.17918 8.13122 5.17918 8.24173V12.5626C5.17918 12.6731 5.22308 12.7791 5.30122 12.8572C5.37936 12.9353 5.48534 12.9792 5.59585 12.9792H12.3333C12.4439 12.9792 12.5498 12.9353 12.628 12.8572C12.7061 12.7791 12.75 12.6731 12.75 12.5626V8.24173C12.75 8.13122 12.7061 8.02524 12.628 7.9471C12.5498 7.86896 12.4439 7.82506 12.3333 7.82506Z" fill="#0C3751" fill-opacity="0.8"/>
</svg>
