<svg width="29" height="28" viewBox="0 0 29 28" fill="none" xmlns="http://www.w3.org/2000/svg">
<g id="Home">
<g id="Iconly/Bold/Home">
<g id="Home_2">
<path id="Vector" d="M18.4989 24.243H18.4989V24.2356V20.6683C18.4989 19.9634 18.2168 19.2888 17.7169 18.7927C17.2174 18.2967 16.5413 18.0194 15.838 18.0194H12.4848C11.0221 18.0194 9.82383 19.1985 9.82383 20.6683V23.5132L9.79775 23.5218L9.79252 24.2387C9.79084 24.4688 9.60042 24.6667 9.35092 24.6667H7.11545C5.43393 24.6667 4.08325 23.3154 4.08325 21.6638V11.5244C4.09965 10.9614 4.36896 10.4327 4.82127 10.0847L4.82887 10.0788L4.83635 10.0728L12.4411 3.98554L12.455 3.97447L12.4684 3.96292C13.417 3.1468 14.8204 3.12134 15.7987 3.90309L15.8017 3.90548L23.5743 10.068C24.0039 10.4286 24.2499 10.9568 24.2499 11.5114V21.6742C24.2499 22.4668 23.9323 23.2284 23.3647 23.7904C22.7968 24.3526 22.0254 24.6688 21.2203 24.6667H21.2177H18.93C18.8128 24.6667 18.7018 24.6202 18.6215 24.5398C18.5413 24.4597 18.4981 24.3527 18.4989 24.243Z" stroke="#0C3751" stroke-width="2"/>
</g>
</g>
</g>
</svg>
