<svg width="28" height="28" viewBox="0 0 28 28" fill="none" xmlns="http://www.w3.org/2000/svg">
<path fill-rule="evenodd" clip-rule="evenodd" d="M11.8668 21.3253H4.86568C4.40568 21.3253 4.03235 20.952 4.03235 20.492C4.03235 20.032 4.40568 19.6587 4.86568 19.6587H11.8668C12.3268 19.6587 12.7001 20.032 12.7001 20.492C12.7001 20.952 12.3268 21.3253 11.8668 21.3253Z" fill="#0C3751"/>
<path fill-rule="evenodd" clip-rule="evenodd" d="M21.9899 10.556H14.9899C14.5299 10.556 14.1566 10.1827 14.1566 9.72266C14.1566 9.26266 14.5299 8.88933 14.9899 8.88933H21.9899C22.4499 8.88933 22.8232 9.26266 22.8232 9.72266C22.8232 10.1827 22.4499 10.556 21.9899 10.556Z" fill="#0C3751"/>
<mask id="mask0_0_156" style="mask-type:luminance" maskUnits="userSpaceOnUse" x="4" y="6" width="7" height="8">
<path fill-rule="evenodd" clip-rule="evenodd" d="M4 6.22266H10.9176V13.1022H4V6.22266Z" fill="white"/>
</mask>
<g mask="url(#mask0_0_156)">
<path fill-rule="evenodd" clip-rule="evenodd" d="M7.45868 7.88889C6.4709 7.88889 5.66645 8.68444 5.66645 9.66333C5.66645 10.6411 6.4709 11.4356 7.45868 11.4356C8.44756 11.4356 9.2509 10.6411 9.2509 9.66333C9.2509 8.68444 8.44756 7.88889 7.45868 7.88889ZM7.45868 13.1022C5.55201 13.1022 3.99979 11.56 3.99979 9.66333C3.99979 7.76667 5.55201 6.22222 7.45868 6.22222C9.36645 6.22222 10.9176 7.76667 10.9176 9.66333C10.9176 11.56 9.36645 13.1022 7.45868 13.1022Z" fill="#0C3751"/>
</g>
<path fill-rule="evenodd" clip-rule="evenodd" d="M19.9863 18.6756C18.9974 18.6756 18.193 19.4711 18.193 20.4489C18.193 21.4278 18.9974 22.2222 19.9863 22.2222C20.9741 22.2222 21.7774 21.4278 21.7774 20.4489C21.7774 19.4711 20.9741 18.6756 19.9863 18.6756ZM19.9863 23.8889C18.0786 23.8889 16.5263 22.3456 16.5263 20.4489C16.5263 18.5522 18.0786 17.0089 19.9863 17.0089C21.893 17.0089 23.4441 18.5522 23.4441 20.4489C23.4441 22.3456 21.893 23.8889 19.9863 23.8889Z" fill="#0C3751"/>
</svg>
