<svg width="29" height="28" viewBox="0 0 29 28" fill="none" xmlns="http://www.w3.org/2000/svg">
<g id="Gift">
<path id="Vector" d="M25.3333 6.99998H20.9483C20.9971 6.95872 21.0471 6.91873 21.0946 6.87498C21.4742 6.5377 21.7802 6.12571 21.9933 5.66479C22.2065 5.20387 22.3222 4.70392 22.3333 4.19623C22.3497 3.64082 22.2525 3.08791 22.0475 2.57146C21.8425 2.055 21.5341 1.58589 21.1413 1.19293C20.7484 0.799969 20.2794 0.491445 19.763 0.286301C19.2466 0.0811562 18.6937 -0.0162795 18.1383 -2.48423e-05C17.6304 0.010915 17.1302 0.126581 16.6691 0.339734C16.2079 0.552886 15.7957 0.858936 15.4583 1.23873C14.9914 1.77984 14.6118 2.39053 14.3333 3.04873C14.0548 2.39053 13.6752 1.77984 13.2083 1.23873C12.8709 0.858936 12.4587 0.552886 11.9976 0.339734C11.5364 0.126581 11.0362 0.010915 10.5283 -2.48423e-05C9.9729 -0.0162795 9.42003 0.0811562 8.90363 0.286301C8.38724 0.491445 7.91822 0.799969 7.52537 1.19293C7.13253 1.58589 6.82414 2.055 6.61915 2.57146C6.41416 3.08791 6.31689 3.64082 6.33331 4.19623C6.34442 4.70392 6.46017 5.20387 6.67332 5.66479C6.88647 6.12571 7.19243 6.5377 7.57206 6.87498C7.61956 6.91623 7.66956 6.95623 7.71831 6.99998H3.33331C2.80288 6.99998 2.29417 7.21069 1.9191 7.58576C1.54403 7.96083 1.33331 8.46954 1.33331 8.99998V13C1.33331 13.5304 1.54403 14.0391 1.9191 14.4142C2.29417 14.7893 2.80288 15 3.33331 15V23C3.33331 23.5304 3.54403 24.0391 3.9191 24.4142C4.29417 24.7893 4.80288 25 5.33331 25H23.3333C23.8637 25 24.3725 24.7893 24.7475 24.4142C25.1226 24.0391 25.3333 23.5304 25.3333 23V15C25.8637 15 26.3725 14.7893 26.7475 14.4142C27.1226 14.0391 27.3333 13.5304 27.3333 13V8.99998C27.3333 8.46954 27.1226 7.96083 26.7475 7.58576C26.3725 7.21069 25.8637 6.99998 25.3333 6.99998ZM16.9583 2.56372C17.1166 2.38888 17.3094 2.24865 17.5245 2.15185C17.7396 2.05505 17.9724 2.00377 18.2083 2.00122H18.2696C18.546 2.00295 18.8194 2.05984 19.0735 2.16856C19.3277 2.27728 19.5577 2.43565 19.7499 2.63437C19.9421 2.83309 20.0927 3.06818 20.1929 3.32586C20.2931 3.58353 20.3408 3.85861 20.3333 4.13498C20.3308 4.37085 20.2795 4.60365 20.1827 4.81876C20.0859 5.03387 19.9457 5.22664 19.7708 5.38498C18.5846 6.43498 16.6158 6.80498 15.3958 6.93498C15.5458 5.61123 15.9583 3.68747 16.9583 2.56372ZM8.94706 2.60873C9.33449 2.22134 9.85919 2.00256 10.4071 1.99998H10.4683C10.7042 2.00252 10.937 2.0538 11.1521 2.1506C11.3672 2.2474 11.56 2.38763 11.7183 2.56248C12.7671 3.74748 13.1371 5.71247 13.2671 6.92747C12.0521 6.80247 10.0871 6.42747 8.90206 5.37873C8.72721 5.22039 8.58699 5.02762 8.49019 4.81251C8.39339 4.5974 8.34211 4.3646 8.33956 4.12873C8.33181 3.84777 8.38122 3.56817 8.48479 3.30688C8.58836 3.04559 8.74393 2.80807 8.94206 2.60873H8.94706ZM3.33331 8.99998H13.3333V13H3.33331V8.99998ZM5.33331 15H13.3333V23H5.33331V15ZM23.3333 23H15.3333V15H23.3333V23ZM25.3333 13H15.3333V8.99998H25.3333V13Z" fill="#DD5464"/>
</g>
</svg>
