<svg width="29" height="28" viewBox="0 0 29 28" fill="none" xmlns="http://www.w3.org/2000/svg">
<path d="M25.8333 7.00001H21.4483C21.4971 6.95876 21.5471 6.91876 21.5946 6.87501C21.9742 6.53773 22.2802 6.12574 22.4933 5.66482C22.7065 5.2039 22.8222 4.70395 22.8333 4.19626C22.8497 3.64085 22.7525 3.08794 22.5475 2.57149C22.3425 2.05503 22.0341 1.58593 21.6413 1.19296C21.2484 0.8 20.7794 0.491476 20.263 0.286331C19.7466 0.0811867 19.1937 -0.016249 18.6383 5.67525e-06C18.1304 0.0109455 17.6302 0.126612 17.1691 0.339764C16.7079 0.552917 16.2957 0.858966 15.9583 1.23876C15.4914 1.77987 15.1118 2.39056 14.8333 3.04876C14.5548 2.39056 14.1752 1.77987 13.7083 1.23876C13.3709 0.858966 12.9587 0.552917 12.4976 0.339764C12.0364 0.126612 11.5362 0.0109455 11.0283 5.67525e-06C10.4729 -0.016249 9.92003 0.0811867 9.40363 0.286331C8.88724 0.491476 8.41822 0.8 8.02537 1.19296C7.63253 1.58593 7.32414 2.05503 7.11915 2.57149C6.91416 3.08794 6.81689 3.64085 6.83331 4.19626C6.84442 4.70395 6.96017 5.2039 7.17332 5.66482C7.38647 6.12574 7.69243 6.53773 8.07206 6.87501C8.11956 6.91626 8.16956 6.95626 8.21831 7.00001H3.83331C3.30288 7.00001 2.79417 7.21072 2.4191 7.58579C2.04403 7.96087 1.83331 8.46957 1.83331 9.00001V13C1.83331 13.5304 2.04403 14.0391 2.4191 14.4142C2.79417 14.7893 3.30288 15 3.83331 15V23C3.83331 23.5304 4.04403 24.0391 4.4191 24.4142C4.79417 24.7893 5.30288 25 5.83331 25H23.8333C24.3637 25 24.8725 24.7893 25.2475 24.4142C25.6226 24.0391 25.8333 23.5304 25.8333 23V15C26.3637 15 26.8725 14.7893 27.2475 14.4142C27.6226 14.0391 27.8333 13.5304 27.8333 13V9.00001C27.8333 8.46957 27.6226 7.96087 27.2475 7.58579C26.8725 7.21072 26.3637 7.00001 25.8333 7.00001ZM17.4583 2.56376C17.6166 2.38891 17.8094 2.24868 18.0245 2.15188C18.2396 2.05508 18.4724 2.0038 18.7083 2.00126H18.7696C19.046 2.00298 19.3194 2.05988 19.5735 2.16859C19.8277 2.27731 20.0577 2.43568 20.2499 2.6344C20.4421 2.83312 20.5927 3.06821 20.6929 3.32589C20.7931 3.58356 20.8408 3.85864 20.8333 4.13501C20.8308 4.37088 20.7795 4.60368 20.6827 4.81879C20.5859 5.0339 20.4457 5.22667 20.2708 5.38501C19.0846 6.43501 17.1158 6.80501 15.8958 6.93501C16.0458 5.61126 16.4583 3.68751 17.4583 2.56376ZM9.44706 2.60876C9.83449 2.22137 10.3592 2.00259 10.9071 2.00001H10.9683C11.2042 2.00255 11.437 2.05383 11.6521 2.15063C11.8672 2.24743 12.06 2.38766 12.2183 2.56251C13.2671 3.74751 13.6371 5.71251 13.7671 6.92751C12.5521 6.80251 10.5871 6.42751 9.40206 5.37876C9.22721 5.22042 9.08699 5.02765 8.99019 4.81254C8.89339 4.59743 8.84211 4.36463 8.83956 4.12876C8.83181 3.8478 8.88122 3.5682 8.98479 3.30691C9.08836 3.04562 9.24393 2.8081 9.44206 2.60876H9.44706ZM3.83331 9.00001H13.8333V13H3.83331V9.00001ZM5.83331 15H13.8333V23H5.83331V15ZM23.8333 23H15.8333V15H23.8333V23ZM25.8333 13H15.8333V9.00001H25.8333V13Z" fill="#0C3751"/>
</svg>
