<svg width="29" height="28" viewBox="0 0 29 28" fill="none" xmlns="http://www.w3.org/2000/svg">
<path d="M18.9989 24.2429H18.999V24.2356V20.6682C18.999 19.9633 18.7168 19.2888 18.217 18.7926C17.7174 18.2967 17.0414 18.0194 16.338 18.0194H12.9848C11.5221 18.0194 10.3239 19.1984 10.3239 20.6682V23.5132L10.2978 23.5218L10.2926 24.2386C10.2909 24.4687 10.1005 24.6667 9.851 24.6667H7.61553C5.934 24.6667 4.58332 23.3154 4.58332 21.6638V11.5244C4.59972 10.9614 4.86903 10.4327 5.32134 10.0846L5.32894 10.0788L5.33642 10.0728L12.9412 3.98551L12.955 3.97444L12.9685 3.96289C13.9171 3.14677 15.3205 3.12131 16.2987 3.90306L16.3017 3.90545L24.0743 10.068C24.5039 10.4285 24.75 10.9568 24.75 11.5113V21.6741C24.75 22.4668 24.4323 23.2283 23.8648 23.7904C23.2969 24.3526 22.5255 24.6687 21.7204 24.6667H21.7178H19.4301C19.3128 24.6667 19.2019 24.6201 19.1215 24.5398C19.0414 24.4596 18.9981 24.3527 18.9989 24.2429Z" stroke="#0C3751" stroke-width="2"/>
</svg>
