<svg width="26" height="24" viewBox="0 0 26 24" fill="none" xmlns="http://www.w3.org/2000/svg">
<path d="M7.255 23.9999C7.54599 23.9999 7.81339 23.924 8.05718 23.7723C8.30099 23.6206 8.59984 23.393 8.95374 23.0895L13.0236 19.5961H20.5972C21.769 19.5961 22.756 19.3932 23.5582 18.9873C24.3603 18.5815 24.9678 17.9917 25.3807 17.2179C25.7936 16.4441 26 15.4996 26 14.3844V5.66804C26 4.55288 25.7936 3.60841 25.3807 2.83464C24.9678 2.06085 24.3603 1.47103 23.5582 1.06517C22.756 0.659318 21.769 0.45639 20.5972 0.45639H5.40292C4.23111 0.45639 3.24411 0.659318 2.44192 1.06517C1.63975 1.47103 1.03222 2.06085 0.619329 2.83464C0.206443 3.60841 0 4.55288 0 5.66804V14.3844C0 15.4996 0.206443 16.4441 0.619329 17.2179C1.03222 17.9917 1.63975 18.5815 2.44192 18.9873C3.24411 19.3932 4.23111 19.5961 5.40292 19.5961H5.96916V22.5546C5.96916 22.9946 6.08123 23.3455 6.30537 23.6073C6.52951 23.869 6.84605 23.9999 7.255 23.9999ZM7.73867 21.9175V18.6175C7.73867 18.3064 7.67182 18.0864 7.53812 17.9575C7.40443 17.8285 7.17636 17.764 6.85392 17.764H5.40292C4.20751 17.764 3.32472 17.4777 2.75454 16.9049C2.18437 16.3322 1.89928 15.4882 1.89928 14.3731V5.66804C1.89928 4.56047 2.18437 3.72031 2.75454 3.14756C3.32472 2.57481 4.20751 2.28844 5.40292 2.28844H20.5972C21.7847 2.28844 22.6655 2.57481 23.2396 3.14756C23.8137 3.72031 24.1008 4.56047 24.1008 5.66804V14.3731C24.1008 15.4882 23.8137 16.3322 23.2396 16.9049C22.6655 17.4777 21.7847 17.764 20.5972 17.764H12.9529C12.6225 17.764 12.3551 17.7982 12.1507 17.8665C11.9462 17.9348 11.7338 18.0789 11.5136 18.2989L7.73867 21.9175ZM6.92469 6.88561H18.922C19.1186 6.88561 19.2818 6.82112 19.4115 6.69216C19.5413 6.5632 19.6062 6.40768 19.6062 6.22561C19.6062 6.04355 19.5413 5.88993 19.4115 5.76476C19.2818 5.63959 19.1186 5.577 18.922 5.577H6.92469C6.72808 5.577 6.56489 5.63959 6.43513 5.76476C6.30537 5.88993 6.24049 6.04355 6.24049 6.22561C6.24049 6.40768 6.30537 6.5632 6.43513 6.69216C6.56489 6.82112 6.72808 6.88561 6.92469 6.88561ZM6.92469 10.5838H18.922C19.1186 10.5838 19.2818 10.5212 19.4115 10.3961C19.5413 10.2709 19.6062 10.1135 19.6062 9.92384C19.6062 9.74936 19.5413 9.59574 19.4115 9.46298C19.2818 9.33022 19.1186 9.26384 18.922 9.26384H6.92469C6.72808 9.26384 6.56489 9.33022 6.43513 9.46298C6.30537 9.59574 6.24049 9.74936 6.24049 9.92384C6.24049 10.1135 6.30537 10.2709 6.43513 10.3961C6.56489 10.5212 6.72808 10.5838 6.92469 10.5838ZM6.92469 14.2934H14.7224C14.9111 14.2934 15.0723 14.2309 15.206 14.1057C15.3397 13.9805 15.4066 13.8269 15.4066 13.6449C15.4066 13.4552 15.3397 13.2958 15.206 13.1669C15.0723 13.0379 14.9111 12.9735 14.7224 12.9735H6.92469C6.72808 12.9735 6.56489 13.0379 6.43513 13.1669C6.30537 13.2958 6.24049 13.4552 6.24049 13.6449C6.24049 13.8269 6.30537 13.9805 6.43513 14.1057C6.56489 14.2309 6.72808 14.2934 6.92469 14.2934Z" fill="#0C3751"/>
</svg>
