<svg width="25" height="25" viewBox="0 0 25 25" fill="none" xmlns="http://www.w3.org/2000/svg">
<path d="M12.5 2.34375C10.4913 2.34375 8.52768 2.9394 6.85749 4.05539C5.18731 5.17137 3.88556 6.75756 3.11685 8.61337C2.34815 10.4692 2.14702 12.5113 2.5389 14.4814C2.93079 16.4515 3.89807 18.2612 5.31845 19.6816C6.73883 21.1019 8.5485 22.0692 10.5186 22.4611C12.4887 22.853 14.5308 22.6519 16.3866 21.8832C18.2424 21.1144 19.8286 19.8127 20.9446 18.1425C22.0606 16.4723 22.6563 14.5087 22.6563 12.5C22.6534 9.80727 21.5825 7.22564 19.6784 5.32159C17.7744 3.41754 15.1927 2.34659 12.5 2.34375ZM12.5 21.0938C10.8003 21.0938 9.13881 20.5897 7.72557 19.6454C6.31234 18.7011 5.21086 17.359 4.56041 15.7887C3.90997 14.2184 3.73979 12.4905 4.07138 10.8234C4.40297 9.15642 5.22145 7.62516 6.42331 6.4233C7.62516 5.22144 9.15642 4.40297 10.8234 4.07138C12.4905 3.73978 14.2184 3.90997 15.7887 4.56041C17.359 5.21085 18.7012 6.31233 19.6454 7.72557C20.5897 9.1388 21.0938 10.8003 21.0938 12.5C21.0912 14.7784 20.1849 16.9628 18.5738 18.5738C16.9628 20.1849 14.7784 21.0912 12.5 21.0938ZM17.1875 12.5C17.1875 12.7072 17.1052 12.9059 16.9587 13.0524C16.8122 13.1989 16.6135 13.2812 16.4063 13.2812H13.2813V16.4062C13.2813 16.6135 13.1989 16.8122 13.0524 16.9587C12.9059 17.1052 12.7072 17.1875 12.5 17.1875C12.2928 17.1875 12.0941 17.1052 11.9476 16.9587C11.8011 16.8122 11.7188 16.6135 11.7188 16.4062V13.2812H8.59375C8.38655 13.2812 8.18784 13.1989 8.04133 13.0524C7.89481 12.9059 7.8125 12.7072 7.8125 12.5C7.8125 12.2928 7.89481 12.0941 8.04133 11.9476C8.18784 11.8011 8.38655 11.7188 8.59375 11.7188H11.7188V8.59375C11.7188 8.38655 11.8011 8.18784 11.9476 8.04132C12.0941 7.89481 12.2928 7.8125 12.5 7.8125C12.7072 7.8125 12.9059 7.89481 13.0524 8.04132C13.1989 8.18784 13.2813 8.38655 13.2813 8.59375V11.7188H16.4063C16.6135 11.7188 16.8122 11.8011 16.9587 11.9476C17.1052 12.0941 17.1875 12.2928 17.1875 12.5Z" fill="#0C3751"/>
</svg>
