<svg width="83" height="54" viewBox="0 0 83 54" fill="none" xmlns="http://www.w3.org/2000/svg">
<g clip-path="url(#clip0_0_113)">
<g clip-path="url(#clip1_0_113)">
<path d="M52.3333 8H30.3333C29.781 8 29.3333 8.44772 29.3333 9V13C29.3333 13.5523 29.781 14 30.3333 14H52.3333C52.8856 14 53.3333 13.5523 53.3333 13V9C53.3333 8.44772 52.8856 8 52.3333 8Z" stroke="#0C3751" stroke-width="2" stroke-linecap="round" stroke-linejoin="round"/>
<path d="M51.3333 14V23C51.3333 23.2652 51.228 23.5196 51.0404 23.7071C50.8529 23.8946 50.5985 24 50.3333 24H32.3333C32.0681 24 31.8137 23.8946 31.6262 23.7071C31.4387 23.5196 31.3333 23.2652 31.3333 23V14" stroke="#0C3751" stroke-width="2" stroke-linecap="round" stroke-linejoin="round"/>
<path d="M41.3333 8V24" stroke="#0C3751" stroke-width="2" stroke-linecap="round" stroke-linejoin="round"/>
<path d="M47.4321 1.90122C48.5996 3.06872 48.6683 5.03372 47.4321 6.12872C45.3183 7.99997 41.3333 7.99997 41.3333 7.99997C41.3333 7.99997 41.3333 4.01497 43.2083 1.90122C44.2996 0.664974 46.2646 0.733724 47.4321 1.90122Z" stroke="#0C3751" stroke-width="2" stroke-linecap="round" stroke-linejoin="round"/>
<path d="M35.2346 1.90122C34.0671 3.06872 33.9983 5.03372 35.2346 6.12872C37.3483 7.99997 41.3333 7.99997 41.3333 7.99997C41.3333 7.99997 41.3333 4.01497 39.4583 1.90122C38.3671 0.664974 36.4021 0.733724 35.2346 1.90122Z" stroke="#0C3751" stroke-width="2" stroke-linecap="round" stroke-linejoin="round"/>
</g>
<path d="M52.3333 6.99998H47.9483C47.9971 6.95872 48.0471 6.91873 48.0946 6.87498C48.4742 6.5377 48.7802 6.12571 48.9933 5.66479C49.2065 5.20387 49.3222 4.70392 49.3333 4.19623C49.3497 3.64082 49.2525 3.08791 49.0475 2.57146C48.8425 2.055 48.5341 1.58589 48.1413 1.19293C47.7484 0.799969 47.2794 0.491445 46.763 0.286301C46.2466 0.0811562 45.6937 -0.0162795 45.1383 -2.48423e-05C44.6304 0.010915 44.1302 0.126581 43.6691 0.339734C43.2079 0.552886 42.7957 0.858936 42.4583 1.23873C41.9914 1.77984 41.6118 2.39053 41.3333 3.04873C41.0548 2.39053 40.6752 1.77984 40.2083 1.23873C39.8709 0.858936 39.4587 0.552886 38.9976 0.339734C38.5364 0.126581 38.0362 0.010915 37.5283 -2.48423e-05C36.9729 -0.0162795 36.42 0.0811562 35.9036 0.286301C35.3872 0.491445 34.9182 0.799969 34.5254 1.19293C34.1325 1.58589 33.8241 2.055 33.6192 2.57146C33.4142 3.08791 33.3169 3.64082 33.3333 4.19623C33.3444 4.70392 33.4602 5.20387 33.6733 5.66479C33.8865 6.12571 34.1924 6.5377 34.5721 6.87498C34.6196 6.91623 34.6696 6.95623 34.7183 6.99998H30.3333C29.8029 6.99998 29.2942 7.21069 28.9191 7.58576C28.544 7.96083 28.3333 8.46954 28.3333 8.99998V13C28.3333 13.5304 28.544 14.0391 28.9191 14.4142C29.2942 14.7893 29.8029 15 30.3333 15V23C30.3333 23.5304 30.544 24.0391 30.9191 24.4142C31.2942 24.7893 31.8029 25 32.3333 25H50.3333C50.8637 25 51.3725 24.7893 51.7475 24.4142C52.1226 24.0391 52.3333 23.5304 52.3333 23V15C52.8637 15 53.3725 14.7893 53.7475 14.4142C54.1226 14.0391 54.3333 13.5304 54.3333 13V8.99998C54.3333 8.46954 54.1226 7.96083 53.7475 7.58576C53.3725 7.21069 52.8637 6.99998 52.3333 6.99998ZM43.9583 2.56372C44.1166 2.38888 44.3094 2.24865 44.5245 2.15185C44.7396 2.05505 44.9724 2.00377 45.2083 2.00122H45.2696C45.546 2.00295 45.8194 2.05984 46.0735 2.16856C46.3277 2.27728 46.5577 2.43565 46.7499 2.63437C46.9421 2.83309 47.0927 3.06818 47.1929 3.32586C47.2931 3.58353 47.3408 3.85861 47.3333 4.13498C47.3308 4.37085 47.2795 4.60365 47.1827 4.81876C47.0859 5.03387 46.9457 5.22664 46.7708 5.38498C45.5846 6.43498 43.6158 6.80498 42.3958 6.93498C42.5458 5.61123 42.9583 3.68747 43.9583 2.56372ZM35.9471 2.60873C36.3345 2.22134 36.8592 2.00256 37.4071 1.99998H37.4683C37.7042 2.00252 37.937 2.0538 38.1521 2.1506C38.3672 2.2474 38.56 2.38763 38.7183 2.56248C39.7671 3.74748 40.1371 5.71247 40.2671 6.92747C39.0521 6.80247 37.0871 6.42747 35.9021 5.37873C35.7272 5.22039 35.587 5.02762 35.4902 4.81251C35.3934 4.5974 35.3421 4.3646 35.3396 4.12873C35.3318 3.84777 35.3812 3.56817 35.4848 3.30688C35.5884 3.04559 35.7439 2.80807 35.9421 2.60873H35.9471ZM30.3333 8.99998H40.3333V13H30.3333V8.99998ZM32.3333 15H40.3333V23H32.3333V15ZM50.3333 23H42.3333V15H50.3333V23ZM52.3333 13H42.3333V8.99998H52.3333V13Z" fill="#0C3751"/>
</g>
<path d="M20.9248 38.08C21.7728 38.08 22.4448 38.292 22.9408 38.716C23.4448 39.14 23.6968 39.712 23.6968 40.432C23.6968 41.176 23.4448 41.752 22.9408 42.16C22.4448 42.56 21.7728 42.76 20.9248 42.76L20.8048 42.832H18.9688V46H17.6968V38.08H20.9248ZM20.8288 41.764C21.3488 41.764 21.7328 41.66 21.9808 41.452C22.2368 41.236 22.3648 40.908 22.3648 40.468C22.3648 40.036 22.2368 39.712 21.9808 39.496C21.7328 39.28 21.3488 39.172 20.8288 39.172H18.9688V41.764H20.8288ZM21.5848 42.028L24.1648 46H22.6888L20.4808 42.532L21.5848 42.028ZM28.4553 46.12C27.8553 46.12 27.3273 45.996 26.8713 45.748C26.4153 45.5 26.0593 45.144 25.8033 44.68C25.5553 44.208 25.4313 43.648 25.4313 43C25.4313 42.352 25.5553 41.796 25.8033 41.332C26.0593 40.86 26.4113 40.5 26.8593 40.252C27.3073 40.004 27.8153 39.88 28.3833 39.88C28.9673 39.88 29.4633 40 29.8713 40.24C30.2793 40.48 30.5913 40.808 30.8073 41.224C31.0233 41.64 31.1313 42.112 31.1313 42.64C31.1313 42.784 31.1273 42.92 31.1193 43.048C31.1113 43.176 31.0993 43.288 31.0833 43.384H26.2593V42.4H30.5193L29.8833 42.592C29.8833 42.048 29.7473 41.632 29.4753 41.344C29.2033 41.048 28.8313 40.9 28.3593 40.9C28.0153 40.9 27.7153 40.98 27.4593 41.14C27.2033 41.3 27.0073 41.54 26.8713 41.86C26.7353 42.172 26.6673 42.556 26.6673 43.012C26.6673 43.46 26.7393 43.84 26.8833 44.152C27.0273 44.464 27.2313 44.7 27.4953 44.86C27.7593 45.02 28.0713 45.1 28.4313 45.1C28.8313 45.1 29.1553 45.024 29.4033 44.872C29.6513 44.72 29.8473 44.508 29.9913 44.236L31.0113 44.716C30.8673 45.004 30.6713 45.256 30.4233 45.472C30.1833 45.68 29.8953 45.84 29.5593 45.952C29.2233 46.064 28.8553 46.12 28.4553 46.12ZM35.4568 46.12C34.9608 46.12 34.5088 45.996 34.1008 45.748C33.7008 45.5 33.3848 45.144 33.1528 44.68C32.9208 44.216 32.8048 43.66 32.8048 43.012C32.8048 42.34 32.9288 41.772 33.1768 41.308C33.4248 40.844 33.7568 40.492 34.1728 40.252C34.5888 40.004 35.0448 39.88 35.5408 39.88C36.0528 39.88 36.4848 40.02 36.8368 40.3C37.1888 40.58 37.4248 40.944 37.5448 41.392L37.4008 41.524V37.3H38.6848V46H37.5448L37.4488 44.368L37.6168 44.38C37.5608 44.74 37.4288 45.052 37.2208 45.316C37.0128 45.572 36.7528 45.772 36.4408 45.916C36.1368 46.052 35.8088 46.12 35.4568 46.12ZM35.7328 45.088C36.0768 45.088 36.3728 45 36.6208 44.824C36.8688 44.648 37.0608 44.4 37.1968 44.08C37.3328 43.76 37.4008 43.376 37.4008 42.928C37.4008 42.512 37.3328 42.156 37.1968 41.86C37.0608 41.556 36.8688 41.324 36.6208 41.164C36.3808 41.004 36.1008 40.924 35.7808 40.924C35.2448 40.924 34.8288 41.108 34.5328 41.476C34.2368 41.844 34.0888 42.352 34.0888 43C34.0888 43.648 34.2328 44.16 34.5208 44.536C34.8088 44.904 35.2128 45.088 35.7328 45.088ZM43.7162 46.12C43.1162 46.12 42.5882 45.996 42.1322 45.748C41.6762 45.5 41.3202 45.144 41.0642 44.68C40.8162 44.208 40.6922 43.648 40.6922 43C40.6922 42.352 40.8162 41.796 41.0642 41.332C41.3202 40.86 41.6722 40.5 42.1202 40.252C42.5682 40.004 43.0762 39.88 43.6442 39.88C44.2282 39.88 44.7242 40 45.1322 40.24C45.5402 40.48 45.8522 40.808 46.0682 41.224C46.2842 41.64 46.3922 42.112 46.3922 42.64C46.3922 42.784 46.3882 42.92 46.3802 43.048C46.3722 43.176 46.3602 43.288 46.3442 43.384H41.5202V42.4H45.7802L45.1442 42.592C45.1442 42.048 45.0082 41.632 44.7362 41.344C44.4642 41.048 44.0922 40.9 43.6202 40.9C43.2762 40.9 42.9762 40.98 42.7202 41.14C42.4642 41.3 42.2682 41.54 42.1322 41.86C41.9962 42.172 41.9282 42.556 41.9282 43.012C41.9282 43.46 42.0002 43.84 42.1442 44.152C42.2882 44.464 42.4922 44.7 42.7562 44.86C43.0202 45.02 43.3322 45.1 43.6922 45.1C44.0922 45.1 44.4162 45.024 44.6642 44.872C44.9122 44.72 45.1082 44.508 45.2522 44.236L46.2722 44.716C46.1282 45.004 45.9322 45.256 45.6842 45.472C45.4442 45.68 45.1562 45.84 44.8202 45.952C44.4842 46.064 44.1162 46.12 43.7162 46.12ZM51.0537 46.12C50.4537 46.12 49.9257 45.996 49.4697 45.748C49.0137 45.5 48.6577 45.144 48.4017 44.68C48.1537 44.208 48.0297 43.648 48.0297 43C48.0297 42.352 48.1537 41.796 48.4017 41.332C48.6577 40.86 49.0097 40.5 49.4577 40.252C49.9057 40.004 50.4137 39.88 50.9817 39.88C51.5657 39.88 52.0617 40 52.4697 40.24C52.8777 40.48 53.1897 40.808 53.4057 41.224C53.6217 41.64 53.7297 42.112 53.7297 42.64C53.7297 42.784 53.7257 42.92 53.7177 43.048C53.7097 43.176 53.6977 43.288 53.6817 43.384H48.8577V42.4H53.1177L52.4817 42.592C52.4817 42.048 52.3457 41.632 52.0737 41.344C51.8017 41.048 51.4297 40.9 50.9577 40.9C50.6137 40.9 50.3137 40.98 50.0577 41.14C49.8017 41.3 49.6057 41.54 49.4697 41.86C49.3337 42.172 49.2657 42.556 49.2657 43.012C49.2657 43.46 49.3377 43.84 49.4817 44.152C49.6257 44.464 49.8297 44.7 50.0937 44.86C50.3577 45.02 50.6697 45.1 51.0297 45.1C51.4297 45.1 51.7537 45.024 52.0017 44.872C52.2497 44.72 52.4457 44.508 52.5897 44.236L53.6097 44.716C53.4657 45.004 53.2697 45.256 53.0217 45.472C52.7817 45.68 52.4937 45.84 52.1577 45.952C51.8217 46.064 51.4537 46.12 51.0537 46.12ZM55.7512 46V40H56.8912L56.9512 41.008C57.1592 40.624 57.4352 40.34 57.7792 40.156C58.1312 39.972 58.5032 39.88 58.8952 39.88C59.3272 39.88 59.7232 39.98 60.0832 40.18C60.4512 40.372 60.7272 40.664 60.9112 41.056C61.0392 40.792 61.2152 40.572 61.4392 40.396C61.6632 40.22 61.9112 40.092 62.1832 40.012C62.4552 39.924 62.7232 39.88 62.9872 39.88C63.3712 39.88 63.7312 39.96 64.0672 40.12C64.4032 40.28 64.6752 40.524 64.8832 40.852C65.0912 41.18 65.1952 41.6 65.1952 42.112V46H63.9112V42.316C63.9112 41.828 63.7952 41.476 63.5632 41.26C63.3312 41.044 63.0352 40.936 62.6752 40.936C62.3952 40.936 62.1352 41.004 61.8952 41.14C61.6632 41.276 61.4752 41.48 61.3312 41.752C61.1872 42.016 61.1152 42.344 61.1152 42.736V46H59.8312V42.316C59.8312 41.828 59.7152 41.476 59.4832 41.26C59.2512 41.044 58.9552 40.936 58.5952 40.936C58.3552 40.936 58.1152 41 57.8752 41.128C57.6352 41.256 57.4352 41.456 57.2752 41.728C57.1152 42 57.0352 42.36 57.0352 42.808V46H55.7512Z" fill="#0C3751"/>
<defs>
<clipPath id="clip0_0_113">
<rect width="28" height="28" fill="white" transform="translate(27.3333)"/>
</clipPath>
<clipPath id="clip1_0_113">
<rect width="32" height="32" fill="white" transform="translate(25.3333 -2)"/>
</clipPath>
</defs>
</svg>
