<svg width="83" height="54" viewBox="0 0 83 54" fill="none" xmlns="http://www.w3.org/2000/svg">
<g clip-path="url(#clip0_43_277)">
<path d="M52.3333 8H30.3333C29.781 8 29.3333 8.44772 29.3333 9V13C29.3333 13.5523 29.781 14 30.3333 14H52.3333C52.8855 14 53.3333 13.5523 53.3333 13V9C53.3333 8.44772 52.8855 8 52.3333 8Z" fill="#0C3751" stroke="white" stroke-linecap="round" stroke-linejoin="round"/>
<path d="M51.3333 14V23C51.3333 23.2652 51.2279 23.5196 51.0404 23.7071C50.8528 23.8946 50.5985 24 50.3333 24H32.3333C32.068 24 31.8137 23.8946 31.6261 23.7071C31.4386 23.5196 31.3333 23.2652 31.3333 23V14" fill="#0C3751"/>
<path d="M51.3333 14V23C51.3333 23.2652 51.2279 23.5196 51.0404 23.7071C50.8528 23.8946 50.5985 24 50.3333 24H32.3333C32.068 24 31.8137 23.8946 31.6261 23.7071C31.4386 23.5196 31.3333 23.2652 31.3333 23V14" stroke="white" stroke-linecap="round" stroke-linejoin="round"/>
<path d="M41.3333 8V24" stroke="white" stroke-linecap="round" stroke-linejoin="round"/>
<path d="M47.432 1.90122C48.5995 3.06872 48.6683 5.03372 47.432 6.12872C45.3183 7.99997 41.3333 7.99997 41.3333 7.99997C41.3333 7.99997 41.3333 4.01497 43.2083 1.90122C44.2995 0.664974 46.2645 0.733724 47.432 1.90122Z" fill="#0C3751" stroke="white" stroke-linecap="round" stroke-linejoin="round"/>
<path d="M35.2345 1.90122C34.067 3.06872 33.9982 5.03372 35.2345 6.12872C37.3482 7.99997 41.3332 7.99997 41.3332 7.99997C41.3332 7.99997 41.3332 4.01497 39.4582 1.90122C38.367 0.664974 36.402 0.733724 35.2345 1.90122Z" fill="#0C3751" stroke="white" stroke-linecap="round" stroke-linejoin="round"/>
</g>
<path d="M20.9803 38.08C21.8763 38.08 22.5803 38.296 23.0923 38.728C23.6043 39.16 23.8603 39.74 23.8603 40.468C23.8603 41.244 23.6043 41.84 23.0923 42.256C22.5803 42.664 21.8803 42.868 20.9923 42.868L20.8243 42.964H19.1203V46H17.4883V38.08H20.9803ZM20.7883 41.704C21.2523 41.704 21.5963 41.612 21.8203 41.428C22.0523 41.236 22.1683 40.944 22.1683 40.552C22.1683 40.16 22.0523 39.872 21.8203 39.688C21.5963 39.496 21.2523 39.4 20.7883 39.4H19.1203V41.704H20.7883ZM21.7603 42.052L24.3283 46H22.4683L20.3443 42.532L21.7603 42.052ZM28.5434 46.12C27.9114 46.12 27.3594 45.996 26.8874 45.748C26.4234 45.5 26.0634 45.144 25.8074 44.68C25.5514 44.216 25.4234 43.656 25.4234 43C25.4234 42.344 25.5514 41.784 25.8074 41.32C26.0634 40.856 26.4194 40.5 26.8754 40.252C27.3394 40.004 27.8674 39.88 28.4594 39.88C29.0674 39.88 29.5834 40.004 30.0074 40.252C30.4314 40.492 30.7554 40.824 30.9794 41.248C31.2034 41.664 31.3154 42.14 31.3154 42.676C31.3154 42.836 31.3114 42.988 31.3034 43.132C31.2954 43.276 31.2834 43.404 31.2674 43.516H26.4794V42.376H30.5474L29.7554 42.664C29.7554 42.16 29.6394 41.772 29.4074 41.5C29.1834 41.228 28.8634 41.092 28.4474 41.092C28.1434 41.092 27.8794 41.164 27.6554 41.308C27.4394 41.452 27.2754 41.668 27.1634 41.956C27.0514 42.236 26.9954 42.592 26.9954 43.024C26.9954 43.448 27.0554 43.8 27.1754 44.08C27.3034 44.352 27.4794 44.556 27.7034 44.692C27.9354 44.828 28.2114 44.896 28.5314 44.896C28.8834 44.896 29.1674 44.828 29.3834 44.692C29.5994 44.556 29.7674 44.368 29.8874 44.128L31.1954 44.632C31.0674 44.944 30.8714 45.212 30.6074 45.436C30.3514 45.66 30.0434 45.832 29.6834 45.952C29.3314 46.064 28.9514 46.12 28.5434 46.12ZM35.3766 46.12C34.8806 46.12 34.4366 45.996 34.0446 45.748C33.6606 45.5 33.3566 45.144 33.1326 44.68C32.9166 44.216 32.8086 43.66 32.8086 43.012C32.8086 42.348 32.9246 41.784 33.1566 41.32C33.3886 40.848 33.7006 40.492 34.0926 40.252C34.4926 40.004 34.9406 39.88 35.4366 39.88C35.9646 39.88 36.4006 40.032 36.7446 40.336C37.0886 40.64 37.3126 41.032 37.4166 41.512L37.2606 41.704V37.372H38.9046V46H37.4286L37.3206 44.176L37.5246 44.272C37.4686 44.648 37.3406 44.976 37.1406 45.256C36.9406 45.528 36.6886 45.74 36.3846 45.892C36.0806 46.044 35.7446 46.12 35.3766 46.12ZM35.8566 44.86C36.1446 44.86 36.3926 44.788 36.6006 44.644C36.8086 44.492 36.9686 44.272 37.0806 43.984C37.2006 43.696 37.2606 43.352 37.2606 42.952C37.2606 42.568 37.2046 42.244 37.0926 41.98C36.9806 41.708 36.8206 41.5 36.6126 41.356C36.4046 41.212 36.1606 41.14 35.8806 41.14C35.4326 41.14 35.0806 41.3 34.8246 41.62C34.5766 41.932 34.4526 42.392 34.4526 43C34.4526 43.608 34.5766 44.072 34.8246 44.392C35.0726 44.704 35.4166 44.86 35.8566 44.86ZM43.816 46.12C43.184 46.12 42.632 45.996 42.16 45.748C41.696 45.5 41.336 45.144 41.08 44.68C40.824 44.216 40.696 43.656 40.696 43C40.696 42.344 40.824 41.784 41.08 41.32C41.336 40.856 41.692 40.5 42.148 40.252C42.612 40.004 43.14 39.88 43.732 39.88C44.34 39.88 44.856 40.004 45.28 40.252C45.704 40.492 46.028 40.824 46.252 41.248C46.476 41.664 46.588 42.14 46.588 42.676C46.588 42.836 46.584 42.988 46.576 43.132C46.568 43.276 46.556 43.404 46.54 43.516H41.752V42.376H45.82L45.028 42.664C45.028 42.16 44.912 41.772 44.68 41.5C44.456 41.228 44.136 41.092 43.72 41.092C43.416 41.092 43.152 41.164 42.928 41.308C42.712 41.452 42.548 41.668 42.436 41.956C42.324 42.236 42.268 42.592 42.268 43.024C42.268 43.448 42.328 43.8 42.448 44.08C42.576 44.352 42.752 44.556 42.976 44.692C43.208 44.828 43.484 44.896 43.804 44.896C44.156 44.896 44.44 44.828 44.656 44.692C44.872 44.556 45.04 44.368 45.16 44.128L46.468 44.632C46.34 44.944 46.144 45.212 45.88 45.436C45.624 45.66 45.316 45.832 44.956 45.952C44.604 46.064 44.224 46.12 43.816 46.12ZM51.1652 46.12C50.5332 46.12 49.9812 45.996 49.5092 45.748C49.0452 45.5 48.6852 45.144 48.4292 44.68C48.1732 44.216 48.0452 43.656 48.0452 43C48.0452 42.344 48.1732 41.784 48.4292 41.32C48.6852 40.856 49.0412 40.5 49.4972 40.252C49.9612 40.004 50.4892 39.88 51.0812 39.88C51.6892 39.88 52.2052 40.004 52.6292 40.252C53.0532 40.492 53.3772 40.824 53.6012 41.248C53.8252 41.664 53.9372 42.14 53.9372 42.676C53.9372 42.836 53.9332 42.988 53.9252 43.132C53.9172 43.276 53.9052 43.404 53.8892 43.516H49.1012V42.376H53.1692L52.3772 42.664C52.3772 42.16 52.2612 41.772 52.0292 41.5C51.8052 41.228 51.4852 41.092 51.0692 41.092C50.7652 41.092 50.5012 41.164 50.2772 41.308C50.0612 41.452 49.8972 41.668 49.7852 41.956C49.6732 42.236 49.6172 42.592 49.6172 43.024C49.6172 43.448 49.6772 43.8 49.7972 44.08C49.9252 44.352 50.1012 44.556 50.3252 44.692C50.5572 44.828 50.8332 44.896 51.1532 44.896C51.5052 44.896 51.7892 44.828 52.0052 44.692C52.2212 44.556 52.3892 44.368 52.5092 44.128L53.8172 44.632C53.6892 44.944 53.4932 45.212 53.2292 45.436C52.9732 45.66 52.6652 45.832 52.3052 45.952C51.9532 46.064 51.5732 46.12 51.1652 46.12ZM55.7305 46V40H57.2065L57.2665 41.08C57.4665 40.68 57.7385 40.38 58.0825 40.18C58.4345 39.98 58.8225 39.88 59.2465 39.88C59.6785 39.88 60.0665 39.98 60.4105 40.18C60.7625 40.38 61.0265 40.676 61.2025 41.068C61.3305 40.804 61.5025 40.584 61.7185 40.408C61.9345 40.232 62.1745 40.1 62.4385 40.012C62.7025 39.924 62.9705 39.88 63.2425 39.88C63.6345 39.88 63.9905 39.96 64.3105 40.12C64.6385 40.28 64.8985 40.52 65.0905 40.84C65.2825 41.16 65.3785 41.568 65.3785 42.064V46H63.7345V42.388C63.7345 41.948 63.6385 41.636 63.4465 41.452C63.2545 41.268 63.0065 41.176 62.7025 41.176C62.4625 41.176 62.2385 41.236 62.0305 41.356C61.8305 41.476 61.6705 41.656 61.5505 41.896C61.4385 42.128 61.3825 42.42 61.3825 42.772V46H59.7385V42.388C59.7385 41.948 59.6385 41.636 59.4385 41.452C59.2465 41.268 58.9985 41.176 58.6945 41.176C58.4865 41.176 58.2785 41.232 58.0705 41.344C57.8705 41.456 57.7025 41.632 57.5665 41.872C57.4385 42.112 57.3745 42.428 57.3745 42.82V46H55.7305Z" fill="#0C3751"/>
<defs>
<clipPath id="clip0_43_277">
<rect width="28" height="28" fill="white" transform="translate(27.3333)"/>
</clipPath>
</defs>
</svg>
