<svg width="26" height="24" viewBox="0 0 26 24" fill="none" xmlns="http://www.w3.org/2000/svg">
<path d="M7.00729 24C7.24322 24 7.45753 23.9415 7.65021 23.8245C7.8429 23.7075 8.0808 23.5246 8.36392 23.2757L12.6225 19.5409L20.5972 19.5522C21.769 19.5522 22.756 19.3504 23.5582 18.9467C24.3603 18.5431 24.9678 17.9565 25.3807 17.1869C25.7936 16.4174 26 15.478 26 14.3689V5.69982C26 4.59072 25.7936 3.65138 25.3807 2.8818C24.9678 2.11223 24.3603 1.52561 23.5582 1.12196C22.756 0.718305 21.769 0.516479 20.5972 0.516479H5.40293C4.23112 0.516479 3.24412 0.718305 2.44194 1.12196C1.63976 1.52561 1.03223 2.11223 0.619345 2.8818C0.206458 3.65138 1.52588e-05 4.59072 1.52588e-05 5.69982V14.3689C1.52588e-05 15.478 0.206458 16.4174 0.619345 17.1869C1.03223 17.9565 1.63976 18.5412 2.44194 18.941C3.24412 19.3409 4.23112 19.5409 5.40293 19.5409H5.95738V22.8342C5.95738 23.1889 6.04782 23.4718 6.2287 23.683C6.40959 23.8943 6.66911 24 7.00729 24ZM6.73596 6.80891C6.53935 6.80891 6.37223 6.74289 6.2346 6.61086C6.09697 6.47882 6.02815 6.31849 6.02815 6.12987C6.02815 5.94125 6.09697 5.78281 6.2346 5.65455C6.37223 5.52628 6.53935 5.46215 6.73596 5.46215H19.1107C19.3074 5.46215 19.4745 5.52628 19.6122 5.65455C19.7497 5.78281 19.8185 5.94125 19.8185 6.12987C19.8185 6.31849 19.7497 6.47882 19.6122 6.61086C19.4745 6.74289 19.3074 6.80891 19.1107 6.80891H6.73596ZM6.73596 10.6003C6.53935 10.6003 6.37223 10.5361 6.2346 10.4078C6.09697 10.2796 6.02815 10.1173 6.02815 9.92118C6.02815 9.7401 6.09697 9.58165 6.2346 9.44585C6.37223 9.31004 6.53935 9.24214 6.73596 9.24214H19.1107C19.3074 9.24214 19.4745 9.31004 19.6122 9.44585C19.7497 9.58165 19.8185 9.7401 19.8185 9.92118C19.8185 10.1173 19.7497 10.2796 19.6122 10.4078C19.4745 10.5361 19.3074 10.6003 19.1107 10.6003H6.73596ZM6.73596 14.4028C6.53935 14.4028 6.37223 14.3387 6.2346 14.2104C6.09697 14.0822 6.02815 13.9237 6.02815 13.7351C6.02815 13.5389 6.09697 13.3748 6.2346 13.2428C6.37223 13.1107 6.53935 13.0447 6.73596 13.0447H14.7813C14.978 13.0447 15.1451 13.1107 15.2828 13.2428C15.4204 13.3748 15.4892 13.5389 15.4892 13.7351C15.4892 13.9237 15.4204 14.0822 15.2828 14.2104C15.1451 14.3387 14.978 14.4028 14.7813 14.4028H6.73596Z" fill="#0C3751"/>
</svg>
