<svg width="29" height="28" viewBox="0 0 29 28" fill="none" xmlns="http://www.w3.org/2000/svg">
<path d="M25.8333 8H3.83331C3.28103 8 2.83331 8.44772 2.83331 9V13C2.83331 13.5523 3.28103 14 3.83331 14H25.8333C26.3856 14 26.8333 13.5523 26.8333 13V9C26.8333 8.44772 26.3856 8 25.8333 8Z" fill="#0C3751" stroke="#FBFBFB" stroke-linecap="round" stroke-linejoin="round"/>
<path d="M24.8333 14V23C24.8333 23.2652 24.728 23.5196 24.5404 23.7071C24.3529 23.8946 24.0985 24 23.8333 24H5.83331C5.5681 24 5.31374 23.8946 5.12621 23.7071C4.93867 23.5196 4.83331 23.2652 4.83331 23V14" fill="#0C3751"/>
<path d="M24.8333 14V23C24.8333 23.2652 24.728 23.5196 24.5404 23.7071C24.3529 23.8946 24.0985 24 23.8333 24H5.83331C5.5681 24 5.31374 23.8946 5.12621 23.7071C4.93867 23.5196 4.83331 23.2652 4.83331 23V14" stroke="#FBFBFB" stroke-linecap="round" stroke-linejoin="round"/>
<path d="M14.8333 8V24" stroke="#FBFBFB" stroke-linecap="round" stroke-linejoin="round"/>
<path d="M20.9321 1.90122C22.0996 3.06872 22.1683 5.03372 20.9321 6.12872C18.8183 7.99997 14.8333 7.99997 14.8333 7.99997C14.8333 7.99997 14.8333 4.01497 16.7083 1.90122C17.7996 0.664974 19.7646 0.733724 20.9321 1.90122Z" fill="#0C3751" stroke="#FBFBFB" stroke-linecap="round" stroke-linejoin="round"/>
<path d="M8.73454 1.90122C7.56704 3.06872 7.49829 5.03372 8.73454 6.12872C10.8483 7.99997 14.8333 7.99997 14.8333 7.99997C14.8333 7.99997 14.8333 4.01497 12.9583 1.90122C11.867 0.664974 9.90204 0.733724 8.73454 1.90122Z" fill="#0C3751" stroke="#FBFBFB" stroke-linecap="round" stroke-linejoin="round"/>
</svg>
