<svg width="29" height="28" viewBox="0 0 29 28" fill="none" xmlns="http://www.w3.org/2000/svg">
<path d="M11.3239 24.2356V20.6682C11.3239 19.7576 12.0675 19.0194 12.9848 19.0194H16.338C16.7785 19.0194 17.201 19.1931 17.5125 19.5023C17.824 19.8115 17.999 20.2309 17.999 20.6682V24.2356C17.9962 24.6142 18.1457 24.9782 18.4144 25.2469C18.6831 25.5156 19.0487 25.6667 19.4301 25.6667H21.7178C22.7862 25.6694 23.8119 25.25 24.5683 24.5009C25.3248 23.7519 25.75 22.7348 25.75 21.6741V11.5113C25.75 10.6545 25.3674 9.84183 24.7054 9.29212L16.923 3.12186C15.5693 2.04 13.6296 2.07493 12.3163 3.20482L4.71149 9.29212C4.01818 9.82562 3.60379 10.6408 3.58331 11.5113V21.6638C3.58331 23.8745 5.38859 25.6667 7.61552 25.6667H9.85099C10.6431 25.6667 11.2868 25.0323 11.2925 24.2459L11.3239 24.2356Z" fill="#0C3751"/>
</svg>
