<svg width="16" height="16" viewBox="0 0 16 16" fill="none" xmlns="http://www.w3.org/2000/svg">
<path id="Vector" d="M15.3969 14.2915C15.4695 14.364 15.5271 14.4502 15.5664 14.545C15.6056 14.6399 15.6259 14.7415 15.6259 14.8442C15.6259 14.9468 15.6056 15.0485 15.5664 15.1433C15.5271 15.2382 15.4695 15.3243 15.3969 15.3969C15.3243 15.4695 15.2382 15.5271 15.1433 15.5664C15.0485 15.6056 14.9468 15.6259 14.8442 15.6259C14.7415 15.6259 14.6399 15.6056 14.545 15.5664C14.4502 15.5271 14.364 15.4695 14.2915 15.3969L7.81293 8.91743L1.33442 15.3969C1.18782 15.5435 0.989 15.6259 0.781684 15.6259C0.574369 15.6259 0.375544 15.5435 0.22895 15.3969C0.0823557 15.2503 4.08669e-09 15.0515 0 14.8442C-4.08669e-09 14.6369 0.0823558 14.438 0.22895 14.2915L6.70844 7.81293L0.22895 1.33442C0.0823557 1.18782 0 0.989 0 0.781684C0 0.574369 0.0823557 0.375544 0.22895 0.22895C0.375544 0.0823557 0.574369 0 0.781684 0C0.989 0 1.18782 0.0823557 1.33442 0.22895L7.81293 6.70844L14.2915 0.22895C14.438 0.0823558 14.6369 -4.08669e-09 14.8442 0C15.0515 4.08669e-09 15.2503 0.0823557 15.3969 0.22895C15.5435 0.375544 15.6259 0.574369 15.6259 0.781684C15.6259 0.989 15.5435 1.18782 15.3969 1.33442L8.91743 7.81293L15.3969 14.2915Z" fill="black"/>
</svg>
